<svg width="186" height="40" viewBox="0 0 186 40" fill="none" xmlns="http://www.w3.org/2000/svg">
<path d="M34.2194 24.0885C36.7041 24.7889 38.2047 27.4036 36.9702 29.6707C35.4389 32.4828 33.2508 34.9002 30.5699 36.6944C26.5963 39.3538 21.8085 40.4647 17.0906 39.8221C12.3726 39.1794 8.04322 36.8266 4.90188 33.1981C1.76055 29.5696 0.0194521 24.9105 0.000132008 20.0812C-0.019188 15.2519 1.68457 10.5786 4.79677 6.92434C7.90898 3.27007 12.2194 0.881667 16.9321 0.200181C21.6447 -0.481305 26.4413 0.590161 30.4359 3.21671C33.1312 4.98891 35.3386 7.3883 36.8924 10.1877C38.145 12.4447 36.6657 15.0712 34.1872 15.7919C31.6817 16.5204 29.1214 14.9451 27.3901 12.993C26.7881 12.3142 26.0968 11.7132 25.3301 11.2091C23.2377 9.83328 20.7253 9.27206 18.2568 9.62901C15.7884 9.98597 13.5306 11.237 11.9005 13.1511C10.2703 15.0651 9.37791 17.513 9.38803 20.0425C9.39815 22.5721 10.3101 25.0125 11.9555 26.913C13.6009 28.8136 15.8686 30.046 18.3399 30.3826C20.8111 30.7193 23.3189 30.1374 25.4002 28.7444C26.1633 28.2337 26.8502 27.6266 27.447 26.9423C29.1618 24.9763 31.7086 23.3808 34.2194 24.0885Z" fill="url(#paint0_linear_64_743)"/>
<g filter="url(#filter0_b_64_743)">
<path fill-rule="evenodd" clip-rule="evenodd" d="M21.361 9.65828C22.7648 9.8884 24.118 10.412 25.3301 11.209C26.0968 11.7132 26.7881 12.3142 27.3902 12.993C29.1215 14.9451 31.6817 16.5204 34.1872 15.7919C36.6658 15.0712 38.145 12.4447 36.8924 10.1877C35.3387 7.3883 33.1313 4.98891 30.436 3.21671C26.4413 0.590161 21.6448 -0.481305 16.9321 0.200181C12.5485 0.834087 8.51288 2.94489 5.46594 6.17759C12.5595 5.29913 17.9249 7.27797 21.361 9.65828Z" fill="url(#paint1_linear_64_743)"/>
</g>
<path d="M54.3894 40.0001C61.4907 40.0001 67.5031 34.0553 67.5031 27.0078C67.5031 19.9603 61.4907 14.0635 54.3894 14.0635C47.2881 14.0635 41.2756 19.9603 41.2756 27.0078C41.2756 34.0553 47.2881 40.0001 54.3894 40.0001ZM54.3894 35.0141C50.318 35.0141 46.9093 31.3705 46.9093 27.0078C46.9093 22.693 50.318 19.0494 54.3894 19.0494C58.4135 19.0494 61.8221 22.693 61.8221 27.0078C61.8221 31.3705 58.4135 35.0141 54.3894 35.0141Z" fill="#F54949"/>
<path d="M85.863 14.0635C82.6437 14.0635 79.8032 15.6455 78.2883 17.9468V14.6388H72.5125V39.4248H78.2883V23.7477C78.667 21.1109 81.1761 19.0494 84.206 19.0494C87.2359 19.0494 89.3663 21.4465 89.3663 24.8025V39.4248H94.9527V23.6518C94.9527 18.0426 91.2127 14.0635 85.863 14.0635Z" fill="#F54949"/>
<path d="M113.011 40.0001C116.893 40.0001 120.16 38.37 122.527 35.8291L118.645 32.4252C117.272 34.0073 115.189 35.0141 113.058 35.0141C109.034 35.0141 105.673 31.3705 105.673 27.0078C105.673 22.693 109.034 19.0494 113.058 19.0494C115.142 19.0494 117.177 20.0562 118.503 21.5424L122.385 18.0906C120.065 15.6455 116.798 14.0635 113.106 14.0635C105.957 14.0635 99.9447 19.9603 99.9447 27.0078C99.9447 34.0553 105.957 40.0001 113.011 40.0001Z" fill="#F54949"/>
<path d="M130.002 10.8993C131.801 10.8993 133.269 9.3172 133.269 7.54335C133.269 5.76949 131.801 4.23535 130.002 4.23535C128.156 4.23535 126.688 5.76949 126.688 7.54335C126.688 9.3172 128.156 10.8993 130.002 10.8993ZM127.067 39.4248H132.843V14.6388H127.067V39.4248Z" fill="#F54949"/>
<path d="M148.268 40.0001C153.997 40.0001 157.879 36.9318 157.879 32.1855C157.879 27.0078 153.429 25.5695 149.31 24.4189C145.57 23.3163 144.292 22.8368 144.292 21.2547C144.292 19.8644 145.854 19.0494 147.89 19.0494C150.02 19.0494 152.529 19.8165 154.849 21.3027L157.263 17.0359C154.612 15.262 151.251 14.0635 147.89 14.0635C142.445 14.0635 138.658 17.2276 138.658 21.878C138.705 26.2887 142.067 27.8228 147.369 29.2131C150.162 29.9802 152.292 30.6034 152.292 32.5211C152.292 34.0553 150.683 35.062 148.363 35.062C145.286 35.062 142.54 33.9114 140.173 32.1855L137.569 36.2606C140.504 38.6577 144.528 40.0001 148.268 40.0001Z" fill="#F54949"/>
<path d="M174.307 34.8223C170.803 34.8223 168.247 32.4252 167.537 29.0213H186C186 19.8644 181.597 14.0635 174.022 14.0635C167.063 14.0635 161.572 19.5288 161.572 26.9598C161.572 34.5826 167.347 40.0001 174.354 40.0001C177.905 40.0001 182.165 38.4659 184.296 36.1647L180.65 32.3293C179.277 33.7676 176.579 34.8223 174.307 34.8223ZM174.259 19.2412C177.715 19.2412 179.798 21.4465 180.461 24.5627H167.584C168.436 21.3027 171.04 19.2412 174.259 19.2412Z" fill="#F54949"/>
<defs>
<filter id="filter0_b_64_743" x="1.46594" y="-4" width="39.8808" height="23.9731" filterUnits="userSpaceOnUse" color-interpolation-filters="sRGB">
<feFlood flood-opacity="0" result="BackgroundImageFix"/>
<feGaussianBlur in="BackgroundImageFix" stdDeviation="2"/>
<feComposite in2="SourceAlpha" operator="in" result="effect1_backgroundBlur_64_743"/>
<feBlend mode="normal" in="SourceGraphic" in2="effect1_backgroundBlur_64_743" result="shape"/>
</filter>
<linearGradient id="paint0_linear_64_743" x1="14.0686" y1="39.0909" x2="25.6453" y2="9.56669" gradientUnits="userSpaceOnUse">
<stop stop-color="#FF8C39"/>
<stop offset="0.197361" stop-color="#F54949"/>
<stop offset="0.69231" stop-color="#FD2975"/>
<stop offset="1" stop-color="#353535" stop-opacity="0.95"/>
</linearGradient>
<linearGradient id="paint1_linear_64_743" x1="12.8205" y1="2.08999" x2="41.2447" y2="17.676" gradientUnits="userSpaceOnUse">
<stop stop-color="#FD2975"/>
<stop offset="0.6454" stop-color="#F54949"/>
<stop offset="1" stop-color="#FF8C39"/>
</linearGradient>
</defs>
</svg>
