<svg width="21" height="20" viewBox="0 0 21 20" fill="none" xmlns="http://www.w3.org/2000/svg">
<path d="M13.1653 16.8775L17.0271 12.9434C17.33 12.6346 17.5001 12.216 17.5 11.7795C17.4999 11.343 17.3296 10.9245 17.0266 10.6159C16.7235 10.3073 16.3126 10.134 15.8841 10.1342C15.4557 10.1343 15.0448 10.3077 14.7419 10.6165L12.1154 13.2922L12.1154 3.64562C12.1154 3.20917 11.9452 2.7906 11.6422 2.48199C11.3393 2.17338 10.9284 2 10.5 2C10.0716 2 9.66071 2.17338 9.35777 2.48199C9.05484 2.7906 8.88465 3.20917 8.88465 3.64562L8.88465 13.2922L6.25808 10.6165C5.95519 10.3077 5.54432 10.1343 5.11587 10.1342C4.68741 10.134 4.27647 10.3073 3.97344 10.6159C3.6704 10.9245 3.5001 11.343 3.5 11.7795C3.4999 12.216 3.67 12.6346 3.9729 12.9434L7.83467 16.8775C8.54223 17.5963 9.50073 18 10.5 18C11.4993 18 12.4578 17.5963 13.1653 16.8775Z" fill="#F54949"/>
</svg>
