<svg width="20" height="20" viewBox="0 0 20 20" fill="none" xmlns="http://www.w3.org/2000/svg">
<path d="M16.8775 7.33467L12.9434 3.4729C12.6346 3.17001 12.216 2.9999 11.7795 3C11.343 3.0001 10.9245 3.1704 10.6159 3.47343C10.3073 3.77647 10.134 4.18742 10.1342 4.61587C10.1343 5.04432 10.3077 5.45519 10.6165 5.75808L13.2922 8.38465H3.64562C3.20917 8.38465 2.7906 8.55483 2.48199 8.85777C2.17338 9.16071 2 9.57158 2 10C2 10.4284 2.17338 10.8393 2.48199 11.1422C2.7906 11.4452 3.20917 11.6154 3.64562 11.6154H13.2922L10.6165 14.2419C10.3077 14.5448 10.1343 14.9557 10.1342 15.3841C10.134 15.8126 10.3073 16.2235 10.6159 16.5266C10.9245 16.8296 11.343 16.9999 11.7795 17C12.216 17.0001 12.6346 16.83 12.9434 16.5271L16.8775 12.6653C17.5963 11.9578 18 10.9993 18 10C18 9.00073 17.5963 8.04223 16.8775 7.33467Z" fill="#F54949"/>
</svg>
