<svg width="228" height="32" viewBox="0 0 228 32" fill="none" xmlns="http://www.w3.org/2000/svg">
<path d="M22.5 4H9.5C8.0418 4.00159 6.64377 4.58156 5.61267 5.61267C4.58156 6.64377 4.00159 8.0418 4 9.5L4 17.5C4.00159 18.9582 4.58156 20.3562 5.61267 21.3873C6.64377 22.4184 8.0418 22.9984 9.5 23H14.5V25H12C11.6022 25 11.2206 25.158 10.9393 25.4393C10.658 25.7206 10.5 26.1022 10.5 26.5C10.5 26.8978 10.658 27.2794 10.9393 27.5607C11.2206 27.842 11.6022 28 12 28H20C20.3978 28 20.7794 27.842 21.0607 27.5607C21.342 27.2794 21.5 26.8978 21.5 26.5C21.5 26.1022 21.342 25.7206 21.0607 25.4393C20.7794 25.158 20.3978 25 20 25H17.5V23H22.5C23.9582 22.9984 25.3562 22.4184 26.3873 21.3873C27.4184 20.3562 27.9984 18.9582 28 17.5V9.5C27.9984 8.0418 27.4184 6.64377 26.3873 5.61267C25.3562 4.58156 23.9582 4.00159 22.5 4V4ZM9.5 7H22.5C23.163 7 23.7989 7.26339 24.2678 7.73223C24.7366 8.20107 25 8.83696 25 9.5V17H7V9.5C7 8.83696 7.26339 8.20107 7.73223 7.73223C8.20107 7.26339 8.83696 7 9.5 7Z" fill="#F54949"/>
<line x1="48.5" y1="15.5" x2="227.5" y2="15.5" stroke="#FCC2C2" stroke-linecap="round" stroke-dasharray="8 8"/>
</svg>
