<svg width="20" height="20" viewBox="0 0 20 20" fill="none" xmlns="http://www.w3.org/2000/svg">
<path fill-rule="evenodd" clip-rule="evenodd" d="M18 9.50512C17.9033 7.9468 17.3523 6.4508 16.4149 5.20153C15.4776 3.95225 14.1948 3.00432 12.7247 2.47457C11.2546 1.94482 9.66142 1.85641 8.14164 2.22025C6.62186 2.58408 5.24186 3.38425 4.17175 4.52212C3.10164 5.65999 2.3882 7.08582 2.11937 8.62386C1.85054 10.1619 2.03807 11.7449 2.65885 13.1778C3.27963 14.6106 4.30652 15.8307 5.61294 16.6875C6.91935 17.5444 8.44819 18.0007 10.011 18H14.3332C15.3053 17.9988 16.2373 17.6124 16.9247 16.9257C17.612 16.2389 17.9988 15.3079 18 14.3367V9.56773V9.50512ZM15.9999 14.3367C15.9999 14.7783 15.8243 15.2018 15.5117 15.5141C15.1992 15.8264 14.7752 16.0018 14.3332 16.0018H10.011C9.16395 16.0013 8.32651 15.8225 7.55329 15.4769C6.78007 15.1314 6.08844 14.6269 5.52348 13.9963C4.95603 13.3663 4.52998 12.6223 4.27391 11.8142C4.01783 11.0062 3.93766 10.1528 4.03875 9.3113C4.19827 7.98463 4.79506 6.7487 5.73512 5.79821C6.67517 4.84772 7.90504 4.23671 9.23097 4.06144C9.49039 4.0291 9.75157 4.01286 10.013 4.01282C11.4105 4.00883 12.7649 4.49593 13.8392 5.38889C14.4654 5.90863 14.9798 6.54977 15.3512 7.2736C15.7225 7.99744 15.9432 8.78896 15.9999 9.60037V14.3367ZM8.33317 9.34143H10.3333C10.5985 9.34143 10.8528 9.23617 11.0404 9.0488C11.2279 8.86144 11.3333 8.60732 11.3333 8.34234C11.3333 8.07737 11.2279 7.82325 11.0404 7.63588C10.8528 7.44852 10.5985 7.34326 10.3333 7.34326H8.33317C8.06794 7.34326 7.81358 7.44852 7.62604 7.63588C7.43849 7.82325 7.33313 8.07737 7.33313 8.34234C7.33313 8.60732 7.43849 8.86144 7.62604 9.0488C7.81358 9.23617 8.06794 9.34143 8.33317 9.34143ZM8.33317 10.6734H13C13.2653 10.6734 13.5196 10.7786 13.7072 10.966C13.8947 11.1534 14.0001 11.4075 14.0001 11.6725C14.0001 11.9374 13.8947 12.1916 13.7072 12.3789C13.5196 12.5663 13.2653 12.6715 13 12.6715H8.33317C8.06794 12.6715 7.81358 12.5663 7.62604 12.3789C7.43849 12.1916 7.33313 11.9374 7.33313 11.6725C7.33313 11.4075 7.43849 11.1534 7.62604 10.966C7.81358 10.7786 8.06794 10.6734 8.33317 10.6734Z" fill="white"/>
</svg>
