<svg width="228" height="32" viewBox="0 0 228 32" fill="none" xmlns="http://www.w3.org/2000/svg">
<path d="M27.9998 7.94019C28.0051 7.42075 27.9061 6.90552 27.7088 6.42494C27.5115 5.94436 27.2197 5.50818 26.8509 5.14217C26.1187 4.41645 25.1311 4.00643 24.0999 4.00007C23.0687 3.99372 22.0761 4.39155 21.3351 5.1082L11.1646 15.0272C10.3516 15.0013 9.5418 15.142 8.78516 15.4405C8.02851 15.739 7.34097 16.189 6.76484 16.763C5.14791 18.3808 4.24696 22.5309 4.03597 23.9948C3.9642 24.4917 4.0001 24.9982 4.14122 25.48C4.28234 25.9618 4.5254 26.4077 4.85394 26.7875C5.18248 27.1672 5.58883 27.472 6.04549 27.6812C6.50215 27.8904 6.99845 27.9991 7.5008 28C7.67246 28 7.8439 27.9877 8.01378 27.963C9.4767 27.7532 13.6285 26.8538 15.2484 25.235C15.8784 24.6008 16.3574 23.8331 16.6501 22.9888C16.9428 22.1444 17.0417 21.2451 16.9393 20.3574L26.8189 10.7232C27.1915 10.3615 27.488 9.92895 27.6908 9.45099C27.8936 8.97304 27.9987 8.45935 27.9998 7.94019ZM13.1235 23.1155C12.4716 23.766 9.77769 24.6804 7.5828 24.9961C7.50432 25.0084 7.42405 25.0019 7.34853 24.9774C7.273 24.9528 7.20434 24.9108 7.14813 24.8547C7.09191 24.7986 7.04973 24.73 7.025 24.6546C7.00028 24.5792 6.99371 24.499 7.00582 24.4205C7.32181 22.2221 8.23676 19.534 8.88773 18.8825C9.45004 18.3223 10.2116 18.0077 11.0056 18.0077C11.7996 18.0077 12.5612 18.3223 13.1235 18.8825C13.4634 19.2278 13.7134 19.6512 13.8515 20.1156C13.8693 20.238 13.9029 20.3576 13.9515 20.4713C14.037 20.9461 14.0064 21.4345 13.8622 21.8949C13.7181 22.3553 13.4646 22.7741 13.1235 23.1155ZM24.723 8.57674L15.7234 17.3495C15.5765 17.1439 15.4165 16.948 15.2444 16.763C14.9829 16.5041 14.698 16.27 14.3935 16.0634L23.43 7.25568C23.6046 7.08659 23.8385 6.99269 24.0816 6.99419C24.3247 6.99568 24.5575 7.09245 24.73 7.26367C24.8166 7.34993 24.8851 7.45255 24.9317 7.56556C24.9782 7.67856 25.0018 7.79968 25.0011 7.92188C25.0003 8.04408 24.9753 8.16491 24.9274 8.27734C24.8794 8.38977 24.8096 8.49154 24.722 8.57674H24.723Z" fill="#F54949"/>
<line x1="48.5" y1="15.5" x2="227.5" y2="15.5" stroke="#FCC2C2" stroke-linecap="round" stroke-dasharray="8 8"/>
</svg>
