<svg width="228" height="32" viewBox="0 0 228 32" fill="none" xmlns="http://www.w3.org/2000/svg">
<path d="M22.596 5.46338C21.5539 4.54698 20.3226 3.85914 18.985 3.44621C17.6474 3.03329 16.2345 2.90488 14.8417 3.06964C12.9355 3.31721 11.14 4.08607 9.66303 5.2873C8.18603 6.48852 7.08781 8.07303 6.49539 9.85757C5.90297 11.6421 5.84055 13.5538 6.31535 15.3715C6.79016 17.1892 7.78278 18.8386 9.17843 20.1291C10.2389 21.105 10.451 22.5012 10.451 24.4281V24.5938C10.4454 25.7553 10.9123 26.8715 11.7494 27.6975C12.5865 28.5236 13.7254 28.992 14.9161 29H17.0904C18.2811 28.992 19.4199 28.5236 20.257 27.6975C21.0941 26.8715 21.5611 25.7553 21.5555 24.5938V24.0273C21.5555 22.2185 21.722 21.0931 22.6015 20.3284C23.671 19.3915 24.5263 18.2455 25.1119 16.965C25.6974 15.6845 26 14.298 26 12.8959C26 11.4937 25.6974 10.1073 25.1119 8.82677C24.5263 7.54622 23.671 6.40024 22.6015 5.46338H22.596ZM18.2241 24.5938C18.2307 24.8937 18.115 25.184 17.9025 25.4008C17.6899 25.6177 17.3979 25.7435 17.0904 25.7506H14.9161C14.6086 25.7435 14.3166 25.6177 14.104 25.4008C13.8915 25.184 13.7758 24.8937 13.7823 24.5938V24.4281C13.7823 24.1475 13.7823 23.8659 13.7668 23.5843H18.2308C18.2308 23.7327 18.2241 23.8811 18.2241 24.0273V24.5938ZM20.3839 17.9032C19.6274 18.5612 19.0582 19.3989 18.7316 20.3349H17.6689V15.0091C18.1734 14.7259 18.5928 14.3184 18.8851 13.8274C19.1774 13.3364 19.3324 12.7791 19.3346 12.2113C19.3346 11.7804 19.1591 11.3672 18.8467 11.0625C18.5343 10.7578 18.1107 10.5866 17.6689 10.5866C17.2271 10.5866 16.8035 10.7578 16.4911 11.0625C16.1787 11.3672 16.0032 11.7804 16.0032 12.2113C16.0032 11.7804 15.8277 11.3672 15.5154 11.0625C15.203 10.7578 14.7793 10.5866 14.3376 10.5866C13.8958 10.5866 13.4721 10.7578 13.1598 11.0625C12.8474 11.3672 12.6719 11.7804 12.6719 12.2113C12.674 12.7791 12.829 13.3364 13.1213 13.8274C13.4137 14.3184 13.8331 14.7259 14.3376 15.0091V20.3349H13.1849C12.8299 19.3605 12.244 18.4817 11.4748 17.77C10.6858 17.04 10.086 16.1375 9.72475 15.137C9.36352 14.1364 9.25125 13.0665 9.39719 12.0153C9.58331 10.5676 10.2565 9.22106 11.3113 8.18654C12.366 7.15203 13.7428 6.488 15.2259 6.29848C15.4839 6.26888 15.7435 6.25405 16.0032 6.25407C17.6191 6.25024 19.1786 6.83284 20.3784 7.88853C21.098 8.52009 21.6735 9.29209 22.0676 10.1545C22.4617 11.0169 22.6656 11.9505 22.6662 12.8947C22.6667 13.8389 22.4638 14.7727 22.0706 15.6355C21.6775 16.4983 21.1028 17.2709 20.3839 17.9032Z" fill="#F54949"/>
<line x1="48.5" y1="15.5" x2="227.5" y2="15.5" stroke="#FCC2C2" stroke-linecap="round" stroke-dasharray="8 8"/>
</svg>
