<svg width="32" height="32" viewBox="0 0 32 32" fill="none" xmlns="http://www.w3.org/2000/svg">
<path fill-rule="evenodd" clip-rule="evenodd" d="M9.5 25H26.5C26.8978 25 27.2794 25.158 27.5607 25.4393C27.842 25.7206 28 26.1022 28 26.5C28 26.8978 27.842 27.2794 27.5607 27.5607C27.2794 27.842 26.8978 28 26.5 28H9.5C8.0418 27.9984 6.64377 27.4184 5.61267 26.3873C4.58156 25.3562 4.00159 23.9582 4 22.5V5.5C4 5.10218 4.15804 4.72064 4.43934 4.43934C4.72064 4.15804 5.10218 4 5.5 4C5.89782 4 6.27936 4.15804 6.56066 4.43934C6.84196 4.72064 7 5.10218 7 5.5V22.5C7 23.163 7.26339 23.7989 7.73223 24.2678C8.20107 24.7366 8.83696 25 9.5 25ZM23.414 7.97607H26.4999C26.8978 7.97607 27.2793 8.13411 27.5606 8.41541C27.8419 8.69672 27.9999 9.07825 27.9999 9.47607V12.5621C28.0001 12.76 27.9415 12.9536 27.8316 13.1182C27.7216 13.2828 27.5653 13.4111 27.3824 13.4868C27.1995 13.5625 26.9982 13.5823 26.8041 13.5435C26.61 13.5047 26.4317 13.4092 26.2919 13.2691L25.5599 12.5361L21.974 16.1211C21.3071 16.7575 20.4207 17.1125 19.499 17.1125C18.5772 17.1125 17.6908 16.7575 17.024 16.1211L16.854 15.9511C16.8075 15.9045 16.7523 15.8676 16.6916 15.8424C16.6308 15.8172 16.5657 15.8042 16.5 15.8042C16.4342 15.8042 16.3691 15.8172 16.3083 15.8424C16.2476 15.8676 16.1924 15.9045 16.146 15.9511L12.046 20.0511C11.9076 20.1943 11.7421 20.3086 11.5591 20.3872C11.3761 20.4658 11.1792 20.5072 10.9801 20.509C10.7809 20.5107 10.5834 20.4727 10.399 20.3973C10.2147 20.3219 10.0472 20.2105 9.90638 20.0697C9.76554 19.9288 9.65416 19.7614 9.57874 19.577C9.50332 19.3927 9.46537 19.1951 9.4671 18.996C9.46883 18.7968 9.51021 18.6 9.58882 18.417C9.66743 18.234 9.78171 18.0684 9.92497 17.9301L14.025 13.8301C14.6916 13.1932 15.578 12.8379 16.5 12.8379C17.4219 12.8379 18.3083 13.1932 18.975 13.8301L19.145 14.0001C19.1914 14.0466 19.2466 14.0836 19.3073 14.1088C19.3681 14.134 19.4332 14.147 19.499 14.147C19.5647 14.147 19.6298 14.134 19.6906 14.1088C19.7513 14.0836 19.8065 14.0466 19.853 14.0001L23.44 10.4151L22.707 9.68307C22.5671 9.54322 22.4719 9.36506 22.4334 9.17111C22.3948 8.97715 22.4146 8.77612 22.4903 8.59342C22.5659 8.41072 22.6941 8.25456 22.8585 8.14467C23.0229 8.03479 23.2162 7.97612 23.414 7.97607Z" fill="#F54949"/>
</svg>
