<svg width="6" height="10" viewBox="0 0 6 10" fill="none" xmlns="http://www.w3.org/2000/svg">
<path d="M0.751439 3.35003L4.11945 0.292746C4.32611 0.105241 4.60636 -6.24833e-05 4.89855 2.78152e-08C5.19074 6.25389e-05 5.47094 0.105486 5.6775 0.29308C5.88406 0.480673 6.00007 0.735069 6 1.0003C5.99993 1.26554 5.88379 1.51988 5.67713 1.70739L2.30912 4.764C2.27493 4.79497 2.2478 4.83175 2.22928 4.87225C2.21077 4.91274 2.20124 4.95616 2.20124 5C2.20124 5.04384 2.21077 5.08726 2.22928 5.12775C2.2478 5.16825 2.27493 5.20503 2.30912 5.236L5.67713 8.29261C5.88379 8.48011 5.99993 8.73446 6 8.9997C6.00007 9.26493 5.88406 9.51933 5.6775 9.70692C5.47094 9.89451 5.19074 9.99994 4.89855 10C4.60636 10.0001 4.32611 9.89476 4.11945 9.70725L0.751439 6.64997C0.270229 6.21196 -1.72695e-07 5.6186 -1.72695e-07 5C-1.72695e-07 4.3814 0.270229 3.78804 0.751439 3.35003V3.35003Z" fill="white"/>
</svg>
