<svg width="16" height="26" viewBox="0 0 16 26" fill="none" xmlns="http://www.w3.org/2000/svg">
<path d="M2.00384 17.2899L10.9852 25.2389C11.5363 25.7264 12.2836 26.0002 13.0628 26C13.842 25.9998 14.5892 25.7257 15.14 25.238C15.6908 24.7503 16.0002 24.0888 16 23.3992C15.9998 22.7096 15.6901 22.0483 15.139 21.5608L6.15767 13.6136C6.06648 13.5331 5.99412 13.4374 5.94476 13.3322C5.89539 13.2269 5.86998 13.114 5.86998 13C5.86998 12.886 5.89539 12.7731 5.94476 12.6678C5.99412 12.5626 6.06648 12.4669 6.15767 12.3864L15.139 4.43921C15.6901 3.9517 15.9998 3.2904 16 2.60079C16.0002 1.91118 15.6908 1.24975 15.14 0.76201C14.5892 0.274267 13.842 0.000161936 13.0628 -2.56778e-07C12.2836 -0.00016245 11.5363 0.273628 10.9852 0.76114L2.00384 8.71007C0.720613 9.84891 1.2771e-06 11.3916 1.1365e-06 13C9.95889e-07 14.6084 0.720612 16.1511 2.00384 17.2899Z" fill="white"/>
</svg>
