<svg width="6" height="10" viewBox="0 0 6 10" fill="none" xmlns="http://www.w3.org/2000/svg">
<path d="M5.24856 3.35003L1.88055 0.292746C1.67389 0.105241 1.39364 -6.24833e-05 1.10145 2.78152e-08C0.809259 6.25389e-05 0.529062 0.105486 0.3225 0.29308C0.115938 0.480673 -6.88337e-05 0.735069 3.06422e-08 1.0003C6.8895e-05 1.26554 0.116208 1.51988 0.322867 1.70739L3.69088 4.764C3.72507 4.79497 3.7522 4.83175 3.77072 4.87225C3.78923 4.91274 3.79876 4.95616 3.79876 5C3.79876 5.04384 3.78923 5.08726 3.77072 5.12775C3.7522 5.16825 3.72507 5.20503 3.69088 5.236L0.322867 8.29261C0.116208 8.48011 6.8895e-05 8.73446 3.06422e-08 8.9997C-6.88337e-05 9.26493 0.115938 9.51933 0.3225 9.70692C0.529062 9.89451 0.809259 9.99994 1.10145 10C1.39364 10.0001 1.67389 9.89476 1.88055 9.70725L5.24856 6.64997C5.72977 6.21196 6 5.6186 6 5C6 4.3814 5.72977 3.78804 5.24856 3.35003V3.35003Z" fill="white"/>
</svg>
