<svg width="16" height="26" viewBox="0 0 16 26" fill="none" xmlns="http://www.w3.org/2000/svg">
<path d="M13.9962 8.71007L5.01481 0.761141C4.46372 0.273628 3.71638 -0.000162456 2.9372 7.23195e-08C2.15802 0.000162601 1.41083 0.274264 0.859999 0.762007C0.309167 1.24975 -0.000183557 1.91118 8.17125e-08 2.60079C0.00018372 3.2904 0.309888 3.9517 0.86098 4.43921L9.84233 12.3864C9.93353 12.4669 10.0059 12.5626 10.0552 12.6678C10.1046 12.7731 10.13 12.886 10.13 13C10.13 13.114 10.1046 13.2269 10.0552 13.3322C10.0059 13.4374 9.93353 13.5331 9.84233 13.6136L0.86098 21.5608C0.309888 22.0483 0.00018372 22.7096 8.17125e-08 23.3992C-0.000183557 24.0888 0.309167 24.7502 0.859999 25.238C1.41083 25.7257 2.15802 25.9998 2.9372 26C3.71638 26.0002 4.46372 25.7264 5.01481 25.2389L13.9962 17.2899C15.2794 16.1511 16 14.6084 16 13C16 11.3916 15.2794 9.84891 13.9962 8.71007Z" fill="white"/>
</svg>
