<svg width="711" height="202" viewBox="0 0 711 202" fill="none" xmlns="http://www.w3.org/2000/svg">
<mask id="path-1-outside-1_104_230" maskUnits="userSpaceOnUse" x="2.67432" y="4.308" width="709" height="197" fill="black">
<rect fill="white" x="2.67432" y="4.308" width="709" height="197"/>
<path d="M32.0663 80V47.892L32.7103 52.4L6.67432 15.6H24.4303L44.3023 44.12L36.2063 43.844L54.1463 15.6H71.3503L46.4183 53.412L47.7983 47.156V80H32.0663Z"/>
<path d="M92.9128 80.92C87.8221 80.92 83.2835 79.816 79.2968 77.608C75.3715 75.4 72.2435 72.3947 69.9128 68.592C67.6435 64.7893 66.5088 60.4347 66.5088 55.528C66.5088 50.6213 67.6435 46.2667 69.9128 42.464C72.2435 38.6613 75.3715 35.656 79.2968 33.448C83.2835 31.24 87.8221 30.136 92.9128 30.136C98.0035 30.136 102.511 31.24 106.437 33.448C110.423 35.656 113.551 38.6613 115.821 42.464C118.09 46.2667 119.225 50.6213 119.225 55.528C119.225 60.4347 118.09 64.7893 115.821 68.592C113.551 72.3947 110.423 75.4 106.437 77.608C102.511 79.816 98.0035 80.92 92.9128 80.92ZM92.9128 68.224C95.1208 68.224 97.0835 67.672 98.8008 66.568C100.518 65.464 101.867 63.9613 102.849 62.06C103.83 60.1587 104.29 57.9813 104.229 55.528C104.29 53.0747 103.83 50.8973 102.849 48.996C101.867 47.0333 100.518 45.5 98.8008 44.396C97.0835 43.292 95.1208 42.74 92.9128 42.74C90.7048 42.74 88.7115 43.292 86.9328 44.396C85.2155 45.5 83.8661 47.0333 82.8848 48.996C81.9035 50.8973 81.4435 53.0747 81.5048 55.528C81.4435 57.9813 81.9035 60.1587 82.8848 62.06C83.8661 63.9613 85.2155 65.464 86.9328 66.568C88.7115 67.672 90.7048 68.224 92.9128 68.224Z"/>
<path d="M145.502 81.012C141.884 81.012 138.786 80.2453 136.21 78.712C133.696 77.1173 131.733 74.848 130.322 71.904C128.973 68.96 128.298 65.4333 128.298 61.324V31.148H143.11V59.3C143.11 61.2627 143.417 62.9493 144.03 64.36C144.644 65.7707 145.564 66.8747 146.79 67.672C148.017 68.408 149.489 68.776 151.206 68.776C152.494 68.776 153.66 68.5613 154.702 68.132C155.806 67.7027 156.726 67.12 157.462 66.384C158.26 65.5867 158.873 64.6973 159.302 63.716C159.732 62.6733 159.946 61.5387 159.946 60.312V31.148H174.758V80H160.866L160.222 69.972L162.982 68.868C162.246 71.1987 161.02 73.284 159.302 75.124C157.585 76.9027 155.53 78.344 153.138 79.448C150.746 80.4907 148.201 81.012 145.502 81.012Z"/>
<path d="M218.174 80V31.148H232.894V80H218.174ZM225.534 21.488C222.774 21.488 220.597 20.844 219.002 19.556C217.469 18.2067 216.702 16.3053 216.702 13.852C216.702 11.644 217.5 9.83466 219.094 8.424C220.689 7.01333 222.836 6.308 225.534 6.308C228.294 6.308 230.441 6.98267 231.974 8.332C233.508 9.62 234.274 11.46 234.274 13.852C234.274 16.1213 233.477 17.9613 231.882 19.372C230.349 20.7827 228.233 21.488 225.534 21.488Z"/>
<path d="M246.633 80V31.148H260.617L261.077 39.98L259.145 40.072C259.881 38.4773 260.801 37.0667 261.905 35.84C263.071 34.6133 264.359 33.6013 265.769 32.804C267.241 31.9453 268.744 31.3013 270.277 30.872C271.872 30.4427 273.467 30.228 275.061 30.228C277.453 30.228 279.631 30.596 281.593 31.332C283.556 32.068 285.273 33.264 286.745 34.92C288.217 36.5147 289.383 38.692 290.241 41.452L287.941 41.268L288.677 39.796C289.475 38.324 290.487 37.0053 291.713 35.84C293.001 34.6133 294.412 33.6013 295.945 32.804C297.479 31.9453 299.073 31.3013 300.729 30.872C302.385 30.4427 303.98 30.228 305.513 30.228C309.377 30.228 312.597 30.9947 315.173 32.528C317.749 34 319.681 36.2387 320.969 39.244C322.319 42.2493 322.993 45.8987 322.993 50.192V80H308.181V51.388C308.181 49.4253 307.905 47.8 307.353 46.512C306.801 45.224 305.973 44.2733 304.869 43.66C303.827 42.9853 302.508 42.648 300.913 42.648C299.625 42.648 298.429 42.8627 297.325 43.292C296.283 43.7213 295.363 44.304 294.565 45.04C293.829 45.776 293.247 46.6347 292.817 47.616C292.388 48.5973 292.173 49.7013 292.173 50.928V80H277.361V51.296C277.361 49.456 277.085 47.892 276.533 46.604C275.981 45.316 275.153 44.3347 274.049 43.66C272.945 42.9853 271.657 42.648 270.185 42.648C268.897 42.648 267.701 42.8627 266.597 43.292C265.555 43.7213 264.635 44.304 263.837 45.04C263.101 45.776 262.519 46.6347 262.089 47.616C261.66 48.5973 261.445 49.6707 261.445 50.836V80H246.633Z"/>
<path d="M353.253 80.828C349.144 80.828 345.464 79.7547 342.213 77.608C339.024 75.4 336.479 72.3947 334.577 68.592C332.676 64.728 331.725 60.3733 331.725 55.528C331.725 50.56 332.676 46.1747 334.577 42.372C336.479 38.5693 339.085 35.5947 342.397 33.448C345.709 31.24 349.481 30.136 353.713 30.136C356.044 30.136 358.16 30.4733 360.061 31.148C362.024 31.8227 363.741 32.7733 365.213 34C366.685 35.1653 367.943 36.5453 368.985 38.14C370.028 39.6733 370.795 41.3293 371.285 43.108L368.249 42.74V31.148H382.877V80H367.973V68.224L371.285 68.132C370.795 69.8493 369.997 71.4747 368.893 73.008C367.789 74.5413 366.44 75.8907 364.845 77.056C363.251 78.2213 361.472 79.1413 359.509 79.816C357.547 80.4907 355.461 80.828 353.253 80.828ZM357.301 68.408C359.571 68.408 361.533 67.8867 363.189 66.844C364.845 65.8013 366.133 64.3293 367.053 62.428C367.973 60.4653 368.433 58.1653 368.433 55.528C368.433 52.8907 367.973 50.6213 367.053 48.72C366.133 46.7573 364.845 45.2547 363.189 44.212C361.533 43.108 359.571 42.556 357.301 42.556C355.093 42.556 353.161 43.108 351.505 44.212C349.911 45.2547 348.653 46.7573 347.733 48.72C346.813 50.6213 346.353 52.8907 346.353 55.528C346.353 58.1653 346.813 60.4653 347.733 62.428C348.653 64.3293 349.911 65.8013 351.505 66.844C353.161 67.8867 355.093 68.408 357.301 68.408Z"/>
<path d="M418.222 101.16C414.235 101.16 410.249 100.577 406.262 99.412C402.337 98.2467 399.147 96.744 396.694 94.904L401.846 84.6C403.134 85.4587 404.545 86.1947 406.078 86.808C407.673 87.4827 409.329 88.004 411.046 88.372C412.763 88.74 414.511 88.924 416.29 88.924C419.418 88.924 421.963 88.464 423.926 87.544C425.889 86.624 427.361 85.2133 428.342 83.312C429.323 81.472 429.814 79.1413 429.814 76.32V68.132L432.666 68.592C432.237 70.616 431.163 72.456 429.446 74.112C427.79 75.768 425.735 77.1173 423.282 78.16C420.829 79.1413 418.222 79.632 415.462 79.632C411.046 79.632 407.09 78.62 403.594 76.596C400.159 74.5107 397.43 71.6587 395.406 68.04C393.443 64.36 392.462 60.128 392.462 55.344C392.462 50.4373 393.443 46.1133 395.406 42.372C397.369 38.5693 400.067 35.5947 403.502 33.448C406.937 31.24 410.801 30.136 415.094 30.136C416.934 30.136 418.682 30.3507 420.338 30.78C422.055 31.2093 423.619 31.792 425.03 32.528C426.502 33.2027 427.79 34.0307 428.894 35.012C430.059 35.932 430.979 36.944 431.654 38.048C432.39 39.152 432.881 40.2867 433.126 41.452L430.09 42.188L430.642 31.148H444.626V76.044C444.626 80.0307 444.013 83.5573 442.786 86.624C441.621 89.752 439.873 92.3893 437.542 94.536C435.273 96.744 432.513 98.4 429.262 99.504C426.011 100.608 422.331 101.16 418.222 101.16ZM418.59 68.224C420.982 68.224 423.037 67.7027 424.754 66.66C426.533 65.556 427.882 64.0533 428.802 62.152C429.783 60.2507 430.274 58.012 430.274 55.436C430.274 52.86 429.783 50.6213 428.802 48.72C427.882 46.7573 426.533 45.2547 424.754 44.212C423.037 43.108 420.982 42.556 418.59 42.556C416.259 42.556 414.235 43.108 412.518 44.212C410.801 45.2547 409.451 46.7573 408.47 48.72C407.55 50.6213 407.09 52.86 407.09 55.436C407.09 58.012 407.55 60.2507 408.47 62.152C409.451 64.0533 410.801 65.556 412.518 66.66C414.235 67.7027 416.259 68.224 418.59 68.224Z"/>
<path d="M458.237 80V31.148H472.957V80H458.237ZM465.597 21.488C462.837 21.488 460.66 20.844 459.065 19.556C457.532 18.2067 456.765 16.3053 456.765 13.852C456.765 11.644 457.562 9.83466 459.157 8.424C460.752 7.01333 462.898 6.308 465.597 6.308C468.357 6.308 470.504 6.98267 472.037 8.332C473.57 9.62 474.337 11.46 474.337 13.852C474.337 16.1213 473.54 17.9613 471.945 19.372C470.412 20.7827 468.296 21.488 465.597 21.488Z"/>
<path d="M486.788 80V31.148H500.772L501.232 41.084L498.288 42.188C498.962 39.98 500.158 37.9867 501.876 36.208C503.654 34.368 505.771 32.896 508.224 31.792C510.677 30.688 513.253 30.136 515.952 30.136C519.632 30.136 522.729 30.9027 525.244 32.436C527.758 33.908 529.66 36.1467 530.948 39.152C532.236 42.096 532.88 45.7147 532.88 50.008V80H518.068V51.204C518.068 49.2413 517.792 47.616 517.24 46.328C516.688 45.04 515.829 44.0893 514.664 43.476C513.56 42.8013 512.18 42.4947 510.524 42.556C509.236 42.556 508.04 42.7707 506.936 43.2C505.832 43.568 504.881 44.1507 504.084 44.948C503.286 45.684 502.642 46.5427 502.152 47.524C501.723 48.5053 501.508 49.5787 501.508 50.744V80H494.24C492.522 80 491.05 80 489.824 80C488.597 80 487.585 80 486.788 80Z"/>
<path d="M568.462 80.92C563.065 80.92 558.373 79.8467 554.386 77.7C550.4 75.492 547.302 72.5173 545.094 68.776C542.886 64.9733 541.782 60.6493 541.782 55.804C541.782 52.0627 542.396 48.628 543.622 45.5C544.849 42.372 546.566 39.6733 548.774 37.404C550.982 35.0733 553.589 33.2947 556.594 32.068C559.661 30.78 563.004 30.136 566.622 30.136C570.057 30.136 573.185 30.7493 576.006 31.976C578.889 33.2027 581.373 34.92 583.458 37.128C585.544 39.336 587.138 41.9427 588.242 44.948C589.346 47.9533 589.837 51.2347 589.714 54.792L589.622 58.748H550.706L548.59 50.468H577.662L576.098 52.216V50.376C575.976 48.8427 575.485 47.4933 574.626 46.328C573.829 45.1013 572.756 44.1507 571.406 43.476C570.057 42.8013 568.524 42.464 566.806 42.464C564.414 42.464 562.36 42.9547 560.642 43.936C558.986 44.856 557.729 46.236 556.87 48.076C556.012 49.8547 555.582 52.0627 555.582 54.7C555.582 57.3987 556.134 59.76 557.238 61.784C558.404 63.7467 560.06 65.28 562.206 66.384C564.414 67.488 567.021 68.04 570.026 68.04C572.112 68.04 573.952 67.7333 575.546 67.12C577.202 66.5067 578.981 65.464 580.882 63.992L587.782 73.744C585.881 75.4 583.857 76.7493 581.71 77.792C579.564 78.8347 577.356 79.6013 575.086 80.092C572.878 80.644 570.67 80.92 568.462 80.92Z"/>
<path d="M629.389 80V31.148H644.109V80H629.389ZM636.749 21.488C633.989 21.488 631.812 20.844 630.217 19.556C628.684 18.2067 627.917 16.3053 627.917 13.852C627.917 11.644 628.715 9.83466 630.309 8.424C631.904 7.01333 634.051 6.308 636.749 6.308C639.509 6.308 641.656 6.98267 643.189 8.332C644.723 9.62 645.489 11.46 645.489 13.852C645.489 16.1213 644.692 17.9613 643.097 19.372C641.564 20.7827 639.448 21.488 636.749 21.488Z"/>
<path d="M661.988 80V18.82H676.708V80H661.988ZM653.34 44.028V31.148H686.184V44.028H653.34Z"/>
<path d="M694.088 98.4L689.856 93.156C692.309 92.052 694.272 90.6413 695.744 88.924C697.216 87.268 697.952 85.8267 697.952 84.6C697.952 84.048 697.798 83.4347 697.492 82.76C697.246 82.1467 696.572 81.4413 695.468 80.644C694.057 79.6013 693.106 78.5893 692.616 77.608C692.125 76.5653 691.88 75.4307 691.88 74.204C691.88 72.3027 692.554 70.8 693.904 69.696C695.314 68.592 697.124 68.04 699.332 68.04C701.11 68.04 702.705 68.5307 704.116 69.512C705.588 70.4933 706.722 71.8427 707.52 73.56C708.378 75.2773 708.807 77.2707 708.807 79.54C708.807 81.6253 708.44 83.6187 707.703 85.52C706.967 87.4827 705.925 89.292 704.576 90.948C703.287 92.6653 701.724 94.168 699.884 95.456C698.105 96.744 696.173 97.7253 694.088 98.4Z"/>
<path d="M126.675 198L110.575 149.148H126.123L135.139 180.888L133.207 180.52L143.327 155.864H151.975L162.647 180.612L160.531 180.796L169.547 149.148H185.095L168.443 198H157.587L147.007 171.78L148.111 171.964L137.531 198H126.675Z"/>
<path d="M214.658 198.92C209.26 198.92 204.568 197.847 200.582 195.7C196.595 193.492 193.498 190.517 191.29 186.776C189.082 182.973 187.978 178.649 187.978 173.804C187.978 170.063 188.591 166.628 189.818 163.5C191.044 160.372 192.762 157.673 194.97 155.404C197.178 153.073 199.784 151.295 202.79 150.068C205.856 148.78 209.199 148.136 212.818 148.136C216.252 148.136 219.38 148.749 222.202 149.976C225.084 151.203 227.568 152.92 229.654 155.128C231.739 157.336 233.334 159.943 234.438 162.948C235.542 165.953 236.032 169.235 235.91 172.792L235.818 176.748H196.902L194.786 168.468H223.858L222.294 170.216V168.376C222.171 166.843 221.68 165.493 220.822 164.328C220.024 163.101 218.951 162.151 217.602 161.476C216.252 160.801 214.719 160.464 213.002 160.464C210.61 160.464 208.555 160.955 206.838 161.936C205.182 162.856 203.924 164.236 203.066 166.076C202.207 167.855 201.778 170.063 201.778 172.7C201.778 175.399 202.33 177.76 203.434 179.784C204.599 181.747 206.255 183.28 208.402 184.384C210.61 185.488 213.216 186.04 216.222 186.04C218.307 186.04 220.147 185.733 221.742 185.12C223.398 184.507 225.176 183.464 227.078 181.992L233.978 191.744C232.076 193.4 230.052 194.749 227.906 195.792C225.759 196.835 223.551 197.601 221.282 198.092C219.074 198.644 216.866 198.92 214.658 198.92Z"/>
<path d="M296.193 198.92C291.47 198.92 287.238 197.816 283.497 195.608C279.755 193.4 276.781 190.395 274.573 186.592C272.426 182.728 271.353 178.373 271.353 173.528C271.353 168.683 272.426 164.359 274.573 160.556C276.781 156.692 279.755 153.656 283.497 151.448C287.238 149.24 291.47 148.136 296.193 148.136C300.547 148.136 304.534 148.903 308.153 150.436C311.833 151.969 314.746 154.116 316.893 156.876L308.889 166.444C308.03 165.463 307.018 164.543 305.853 163.684C304.687 162.825 303.399 162.151 301.989 161.66C300.578 161.169 299.106 160.924 297.573 160.924C295.242 160.924 293.187 161.476 291.409 162.58C289.63 163.623 288.25 165.095 287.269 166.996C286.287 168.897 285.797 171.075 285.797 173.528C285.797 175.859 286.287 177.975 287.269 179.876C288.311 181.777 289.722 183.28 291.501 184.384C293.279 185.488 295.303 186.04 297.573 186.04C299.167 186.04 300.639 185.856 301.989 185.488C303.338 185.059 304.565 184.445 305.669 183.648C306.834 182.851 307.907 181.869 308.889 180.704L316.801 190.364C314.715 193.001 311.802 195.087 308.061 196.62C304.381 198.153 300.425 198.92 296.193 198.92Z"/>
<path d="M347.889 198.92C342.799 198.92 338.26 197.816 334.273 195.608C330.348 193.4 327.22 190.395 324.889 186.592C322.62 182.789 321.485 178.435 321.485 173.528C321.485 168.621 322.62 164.267 324.889 160.464C327.22 156.661 330.348 153.656 334.273 151.448C338.26 149.24 342.799 148.136 347.889 148.136C352.98 148.136 357.488 149.24 361.413 151.448C365.4 153.656 368.528 156.661 370.797 160.464C373.067 164.267 374.201 168.621 374.201 173.528C374.201 178.435 373.067 182.789 370.797 186.592C368.528 190.395 365.4 193.4 361.413 195.608C357.488 197.816 352.98 198.92 347.889 198.92ZM347.889 186.224C350.097 186.224 352.06 185.672 353.777 184.568C355.495 183.464 356.844 181.961 357.825 180.06C358.807 178.159 359.267 175.981 359.205 173.528C359.267 171.075 358.807 168.897 357.825 166.996C356.844 165.033 355.495 163.5 353.777 162.396C352.06 161.292 350.097 160.74 347.889 160.74C345.681 160.74 343.688 161.292 341.909 162.396C340.192 163.5 338.843 165.033 337.861 166.996C336.88 168.897 336.42 171.075 336.481 173.528C336.42 175.981 336.88 178.159 337.861 180.06C338.843 181.961 340.192 183.464 341.909 184.568C343.688 185.672 345.681 186.224 347.889 186.224Z"/>
<path d="M402.319 199.012C398.087 199.012 394.315 197.939 391.003 195.792C387.752 193.584 385.176 190.579 383.275 186.776C381.374 182.912 380.423 178.527 380.423 173.62C380.423 168.713 381.374 164.359 383.275 160.556C385.176 156.692 387.783 153.656 391.095 151.448C394.407 149.24 398.21 148.136 402.503 148.136C404.711 148.136 406.827 148.473 408.851 149.148C410.875 149.823 412.715 150.743 414.371 151.908C416.027 153.073 417.376 154.423 418.419 155.956C419.462 157.428 420.075 158.961 420.259 160.556L416.763 161.384V129.92H431.575V198H417.867L417.039 186.868L419.983 187.328C419.799 188.861 419.186 190.333 418.143 191.744C417.162 193.155 415.874 194.412 414.279 195.516C412.684 196.559 410.844 197.387 408.759 198C406.735 198.675 404.588 199.012 402.319 199.012ZM406.091 186.776C408.36 186.776 410.323 186.224 411.979 185.12C413.635 184.016 414.892 182.483 415.751 180.52C416.671 178.557 417.131 176.257 417.131 173.62C417.131 170.921 416.671 168.591 415.751 166.628C414.892 164.665 413.635 163.132 411.979 162.028C410.323 160.924 408.36 160.372 406.091 160.372C403.822 160.372 401.859 160.924 400.203 162.028C398.608 163.132 397.351 164.665 396.431 166.628C395.511 168.591 395.051 170.921 395.051 173.62C395.051 176.257 395.511 178.557 396.431 180.52C397.351 182.483 398.608 184.016 400.203 185.12C401.859 186.224 403.822 186.776 406.091 186.776Z"/>
<path d="M467.298 198.92C461.901 198.92 457.209 197.847 453.222 195.7C449.236 193.492 446.138 190.517 443.93 186.776C441.722 182.973 440.618 178.649 440.618 173.804C440.618 170.063 441.232 166.628 442.458 163.5C443.685 160.372 445.402 157.673 447.61 155.404C449.818 153.073 452.425 151.295 455.43 150.068C458.497 148.78 461.84 148.136 465.458 148.136C468.893 148.136 472.021 148.749 474.842 149.976C477.725 151.203 480.209 152.92 482.294 155.128C484.38 157.336 485.974 159.943 487.078 162.948C488.182 165.953 488.673 169.235 488.55 172.792L488.458 176.748H449.542L447.426 168.468H476.498L474.934 170.216V168.376C474.812 166.843 474.321 165.493 473.462 164.328C472.665 163.101 471.592 162.151 470.242 161.476C468.893 160.801 467.36 160.464 465.642 160.464C463.25 160.464 461.196 160.955 459.478 161.936C457.822 162.856 456.565 164.236 455.706 166.076C454.848 167.855 454.418 170.063 454.418 172.7C454.418 175.399 454.97 177.76 456.074 179.784C457.24 181.747 458.896 183.28 461.042 184.384C463.25 185.488 465.857 186.04 468.862 186.04C470.948 186.04 472.788 185.733 474.382 185.12C476.038 184.507 477.817 183.464 479.718 181.992L486.618 191.744C484.717 193.4 482.693 194.749 480.546 195.792C478.4 196.835 476.192 197.601 473.922 198.092C471.714 198.644 469.506 198.92 467.298 198.92Z"/>
<path d="M528.225 198V149.148H542.945V198H528.225ZM535.585 139.488C532.825 139.488 530.648 138.844 529.053 137.556C527.52 136.207 526.753 134.305 526.753 131.852C526.753 129.644 527.551 127.835 529.145 126.424C530.74 125.013 532.886 124.308 535.585 124.308C538.345 124.308 540.492 124.983 542.025 126.332C543.558 127.62 544.325 129.46 544.325 131.852C544.325 134.121 543.528 135.961 541.933 137.372C540.4 138.783 538.284 139.488 535.585 139.488Z"/>
<path d="M560.824 198V136.82H575.544V198H560.824ZM552.176 162.028V149.148H585.02V162.028H552.176Z"/>
<path d="M598.676 199.012C596.162 199.012 594.199 198.307 592.788 196.896C591.439 195.485 590.764 193.461 590.764 190.824C590.764 188.371 591.5 186.377 592.972 184.844C594.444 183.311 596.346 182.544 598.676 182.544C601.191 182.544 603.154 183.28 604.564 184.752C605.975 186.163 606.68 188.187 606.68 190.824C606.68 193.216 605.944 195.179 604.472 196.712C603 198.245 601.068 199.012 598.676 199.012Z"/>
</mask>
<path d="M32.0663 80V47.892L32.7103 52.4L6.67432 15.6H24.4303L44.3023 44.12L36.2063 43.844L54.1463 15.6H71.3503L46.4183 53.412L47.7983 47.156V80H32.0663Z" stroke="#F54949" stroke-width="4" mask="url(#path-1-outside-1_104_230)"/>
<path d="M92.9128 80.92C87.8221 80.92 83.2835 79.816 79.2968 77.608C75.3715 75.4 72.2435 72.3947 69.9128 68.592C67.6435 64.7893 66.5088 60.4347 66.5088 55.528C66.5088 50.6213 67.6435 46.2667 69.9128 42.464C72.2435 38.6613 75.3715 35.656 79.2968 33.448C83.2835 31.24 87.8221 30.136 92.9128 30.136C98.0035 30.136 102.511 31.24 106.437 33.448C110.423 35.656 113.551 38.6613 115.821 42.464C118.09 46.2667 119.225 50.6213 119.225 55.528C119.225 60.4347 118.09 64.7893 115.821 68.592C113.551 72.3947 110.423 75.4 106.437 77.608C102.511 79.816 98.0035 80.92 92.9128 80.92ZM92.9128 68.224C95.1208 68.224 97.0835 67.672 98.8008 66.568C100.518 65.464 101.867 63.9613 102.849 62.06C103.83 60.1587 104.29 57.9813 104.229 55.528C104.29 53.0747 103.83 50.8973 102.849 48.996C101.867 47.0333 100.518 45.5 98.8008 44.396C97.0835 43.292 95.1208 42.74 92.9128 42.74C90.7048 42.74 88.7115 43.292 86.9328 44.396C85.2155 45.5 83.8661 47.0333 82.8848 48.996C81.9035 50.8973 81.4435 53.0747 81.5048 55.528C81.4435 57.9813 81.9035 60.1587 82.8848 62.06C83.8661 63.9613 85.2155 65.464 86.9328 66.568C88.7115 67.672 90.7048 68.224 92.9128 68.224Z" stroke="#F54949" stroke-width="4" mask="url(#path-1-outside-1_104_230)"/>
<path d="M145.502 81.012C141.884 81.012 138.786 80.2453 136.21 78.712C133.696 77.1173 131.733 74.848 130.322 71.904C128.973 68.96 128.298 65.4333 128.298 61.324V31.148H143.11V59.3C143.11 61.2627 143.417 62.9493 144.03 64.36C144.644 65.7707 145.564 66.8747 146.79 67.672C148.017 68.408 149.489 68.776 151.206 68.776C152.494 68.776 153.66 68.5613 154.702 68.132C155.806 67.7027 156.726 67.12 157.462 66.384C158.26 65.5867 158.873 64.6973 159.302 63.716C159.732 62.6733 159.946 61.5387 159.946 60.312V31.148H174.758V80H160.866L160.222 69.972L162.982 68.868C162.246 71.1987 161.02 73.284 159.302 75.124C157.585 76.9027 155.53 78.344 153.138 79.448C150.746 80.4907 148.201 81.012 145.502 81.012Z" stroke="#F54949" stroke-width="4" mask="url(#path-1-outside-1_104_230)"/>
<path d="M218.174 80V31.148H232.894V80H218.174ZM225.534 21.488C222.774 21.488 220.597 20.844 219.002 19.556C217.469 18.2067 216.702 16.3053 216.702 13.852C216.702 11.644 217.5 9.83466 219.094 8.424C220.689 7.01333 222.836 6.308 225.534 6.308C228.294 6.308 230.441 6.98267 231.974 8.332C233.508 9.62 234.274 11.46 234.274 13.852C234.274 16.1213 233.477 17.9613 231.882 19.372C230.349 20.7827 228.233 21.488 225.534 21.488Z" stroke="#F54949" stroke-width="4" mask="url(#path-1-outside-1_104_230)"/>
<path d="M246.633 80V31.148H260.617L261.077 39.98L259.145 40.072C259.881 38.4773 260.801 37.0667 261.905 35.84C263.071 34.6133 264.359 33.6013 265.769 32.804C267.241 31.9453 268.744 31.3013 270.277 30.872C271.872 30.4427 273.467 30.228 275.061 30.228C277.453 30.228 279.631 30.596 281.593 31.332C283.556 32.068 285.273 33.264 286.745 34.92C288.217 36.5147 289.383 38.692 290.241 41.452L287.941 41.268L288.677 39.796C289.475 38.324 290.487 37.0053 291.713 35.84C293.001 34.6133 294.412 33.6013 295.945 32.804C297.479 31.9453 299.073 31.3013 300.729 30.872C302.385 30.4427 303.98 30.228 305.513 30.228C309.377 30.228 312.597 30.9947 315.173 32.528C317.749 34 319.681 36.2387 320.969 39.244C322.319 42.2493 322.993 45.8987 322.993 50.192V80H308.181V51.388C308.181 49.4253 307.905 47.8 307.353 46.512C306.801 45.224 305.973 44.2733 304.869 43.66C303.827 42.9853 302.508 42.648 300.913 42.648C299.625 42.648 298.429 42.8627 297.325 43.292C296.283 43.7213 295.363 44.304 294.565 45.04C293.829 45.776 293.247 46.6347 292.817 47.616C292.388 48.5973 292.173 49.7013 292.173 50.928V80H277.361V51.296C277.361 49.456 277.085 47.892 276.533 46.604C275.981 45.316 275.153 44.3347 274.049 43.66C272.945 42.9853 271.657 42.648 270.185 42.648C268.897 42.648 267.701 42.8627 266.597 43.292C265.555 43.7213 264.635 44.304 263.837 45.04C263.101 45.776 262.519 46.6347 262.089 47.616C261.66 48.5973 261.445 49.6707 261.445 50.836V80H246.633Z" stroke="#F54949" stroke-width="4" mask="url(#path-1-outside-1_104_230)"/>
<path d="M353.253 80.828C349.144 80.828 345.464 79.7547 342.213 77.608C339.024 75.4 336.479 72.3947 334.577 68.592C332.676 64.728 331.725 60.3733 331.725 55.528C331.725 50.56 332.676 46.1747 334.577 42.372C336.479 38.5693 339.085 35.5947 342.397 33.448C345.709 31.24 349.481 30.136 353.713 30.136C356.044 30.136 358.16 30.4733 360.061 31.148C362.024 31.8227 363.741 32.7733 365.213 34C366.685 35.1653 367.943 36.5453 368.985 38.14C370.028 39.6733 370.795 41.3293 371.285 43.108L368.249 42.74V31.148H382.877V80H367.973V68.224L371.285 68.132C370.795 69.8493 369.997 71.4747 368.893 73.008C367.789 74.5413 366.44 75.8907 364.845 77.056C363.251 78.2213 361.472 79.1413 359.509 79.816C357.547 80.4907 355.461 80.828 353.253 80.828ZM357.301 68.408C359.571 68.408 361.533 67.8867 363.189 66.844C364.845 65.8013 366.133 64.3293 367.053 62.428C367.973 60.4653 368.433 58.1653 368.433 55.528C368.433 52.8907 367.973 50.6213 367.053 48.72C366.133 46.7573 364.845 45.2547 363.189 44.212C361.533 43.108 359.571 42.556 357.301 42.556C355.093 42.556 353.161 43.108 351.505 44.212C349.911 45.2547 348.653 46.7573 347.733 48.72C346.813 50.6213 346.353 52.8907 346.353 55.528C346.353 58.1653 346.813 60.4653 347.733 62.428C348.653 64.3293 349.911 65.8013 351.505 66.844C353.161 67.8867 355.093 68.408 357.301 68.408Z" stroke="#F54949" stroke-width="4" mask="url(#path-1-outside-1_104_230)"/>
<path d="M418.222 101.16C414.235 101.16 410.249 100.577 406.262 99.412C402.337 98.2467 399.147 96.744 396.694 94.904L401.846 84.6C403.134 85.4587 404.545 86.1947 406.078 86.808C407.673 87.4827 409.329 88.004 411.046 88.372C412.763 88.74 414.511 88.924 416.29 88.924C419.418 88.924 421.963 88.464 423.926 87.544C425.889 86.624 427.361 85.2133 428.342 83.312C429.323 81.472 429.814 79.1413 429.814 76.32V68.132L432.666 68.592C432.237 70.616 431.163 72.456 429.446 74.112C427.79 75.768 425.735 77.1173 423.282 78.16C420.829 79.1413 418.222 79.632 415.462 79.632C411.046 79.632 407.09 78.62 403.594 76.596C400.159 74.5107 397.43 71.6587 395.406 68.04C393.443 64.36 392.462 60.128 392.462 55.344C392.462 50.4373 393.443 46.1133 395.406 42.372C397.369 38.5693 400.067 35.5947 403.502 33.448C406.937 31.24 410.801 30.136 415.094 30.136C416.934 30.136 418.682 30.3507 420.338 30.78C422.055 31.2093 423.619 31.792 425.03 32.528C426.502 33.2027 427.79 34.0307 428.894 35.012C430.059 35.932 430.979 36.944 431.654 38.048C432.39 39.152 432.881 40.2867 433.126 41.452L430.09 42.188L430.642 31.148H444.626V76.044C444.626 80.0307 444.013 83.5573 442.786 86.624C441.621 89.752 439.873 92.3893 437.542 94.536C435.273 96.744 432.513 98.4 429.262 99.504C426.011 100.608 422.331 101.16 418.222 101.16ZM418.59 68.224C420.982 68.224 423.037 67.7027 424.754 66.66C426.533 65.556 427.882 64.0533 428.802 62.152C429.783 60.2507 430.274 58.012 430.274 55.436C430.274 52.86 429.783 50.6213 428.802 48.72C427.882 46.7573 426.533 45.2547 424.754 44.212C423.037 43.108 420.982 42.556 418.59 42.556C416.259 42.556 414.235 43.108 412.518 44.212C410.801 45.2547 409.451 46.7573 408.47 48.72C407.55 50.6213 407.09 52.86 407.09 55.436C407.09 58.012 407.55 60.2507 408.47 62.152C409.451 64.0533 410.801 65.556 412.518 66.66C414.235 67.7027 416.259 68.224 418.59 68.224Z" stroke="#F54949" stroke-width="4" mask="url(#path-1-outside-1_104_230)"/>
<path d="M458.237 80V31.148H472.957V80H458.237ZM465.597 21.488C462.837 21.488 460.66 20.844 459.065 19.556C457.532 18.2067 456.765 16.3053 456.765 13.852C456.765 11.644 457.562 9.83466 459.157 8.424C460.752 7.01333 462.898 6.308 465.597 6.308C468.357 6.308 470.504 6.98267 472.037 8.332C473.57 9.62 474.337 11.46 474.337 13.852C474.337 16.1213 473.54 17.9613 471.945 19.372C470.412 20.7827 468.296 21.488 465.597 21.488Z" stroke="#F54949" stroke-width="4" mask="url(#path-1-outside-1_104_230)"/>
<path d="M486.788 80V31.148H500.772L501.232 41.084L498.288 42.188C498.962 39.98 500.158 37.9867 501.876 36.208C503.654 34.368 505.771 32.896 508.224 31.792C510.677 30.688 513.253 30.136 515.952 30.136C519.632 30.136 522.729 30.9027 525.244 32.436C527.758 33.908 529.66 36.1467 530.948 39.152C532.236 42.096 532.88 45.7147 532.88 50.008V80H518.068V51.204C518.068 49.2413 517.792 47.616 517.24 46.328C516.688 45.04 515.829 44.0893 514.664 43.476C513.56 42.8013 512.18 42.4947 510.524 42.556C509.236 42.556 508.04 42.7707 506.936 43.2C505.832 43.568 504.881 44.1507 504.084 44.948C503.286 45.684 502.642 46.5427 502.152 47.524C501.723 48.5053 501.508 49.5787 501.508 50.744V80H494.24C492.522 80 491.05 80 489.824 80C488.597 80 487.585 80 486.788 80Z" stroke="#F54949" stroke-width="4" mask="url(#path-1-outside-1_104_230)"/>
<path d="M568.462 80.92C563.065 80.92 558.373 79.8467 554.386 77.7C550.4 75.492 547.302 72.5173 545.094 68.776C542.886 64.9733 541.782 60.6493 541.782 55.804C541.782 52.0627 542.396 48.628 543.622 45.5C544.849 42.372 546.566 39.6733 548.774 37.404C550.982 35.0733 553.589 33.2947 556.594 32.068C559.661 30.78 563.004 30.136 566.622 30.136C570.057 30.136 573.185 30.7493 576.006 31.976C578.889 33.2027 581.373 34.92 583.458 37.128C585.544 39.336 587.138 41.9427 588.242 44.948C589.346 47.9533 589.837 51.2347 589.714 54.792L589.622 58.748H550.706L548.59 50.468H577.662L576.098 52.216V50.376C575.976 48.8427 575.485 47.4933 574.626 46.328C573.829 45.1013 572.756 44.1507 571.406 43.476C570.057 42.8013 568.524 42.464 566.806 42.464C564.414 42.464 562.36 42.9547 560.642 43.936C558.986 44.856 557.729 46.236 556.87 48.076C556.012 49.8547 555.582 52.0627 555.582 54.7C555.582 57.3987 556.134 59.76 557.238 61.784C558.404 63.7467 560.06 65.28 562.206 66.384C564.414 67.488 567.021 68.04 570.026 68.04C572.112 68.04 573.952 67.7333 575.546 67.12C577.202 66.5067 578.981 65.464 580.882 63.992L587.782 73.744C585.881 75.4 583.857 76.7493 581.71 77.792C579.564 78.8347 577.356 79.6013 575.086 80.092C572.878 80.644 570.67 80.92 568.462 80.92Z" stroke="#F54949" stroke-width="4" mask="url(#path-1-outside-1_104_230)"/>
<path d="M629.389 80V31.148H644.109V80H629.389ZM636.749 21.488C633.989 21.488 631.812 20.844 630.217 19.556C628.684 18.2067 627.917 16.3053 627.917 13.852C627.917 11.644 628.715 9.83466 630.309 8.424C631.904 7.01333 634.051 6.308 636.749 6.308C639.509 6.308 641.656 6.98267 643.189 8.332C644.723 9.62 645.489 11.46 645.489 13.852C645.489 16.1213 644.692 17.9613 643.097 19.372C641.564 20.7827 639.448 21.488 636.749 21.488Z" stroke="#F54949" stroke-width="4" mask="url(#path-1-outside-1_104_230)"/>
<path d="M661.988 80V18.82H676.708V80H661.988ZM653.34 44.028V31.148H686.184V44.028H653.34Z" stroke="#F54949" stroke-width="4" mask="url(#path-1-outside-1_104_230)"/>
<path d="M694.088 98.4L689.856 93.156C692.309 92.052 694.272 90.6413 695.744 88.924C697.216 87.268 697.952 85.8267 697.952 84.6C697.952 84.048 697.798 83.4347 697.492 82.76C697.246 82.1467 696.572 81.4413 695.468 80.644C694.057 79.6013 693.106 78.5893 692.616 77.608C692.125 76.5653 691.88 75.4307 691.88 74.204C691.88 72.3027 692.554 70.8 693.904 69.696C695.314 68.592 697.124 68.04 699.332 68.04C701.11 68.04 702.705 68.5307 704.116 69.512C705.588 70.4933 706.722 71.8427 707.52 73.56C708.378 75.2773 708.807 77.2707 708.807 79.54C708.807 81.6253 708.44 83.6187 707.703 85.52C706.967 87.4827 705.925 89.292 704.576 90.948C703.287 92.6653 701.724 94.168 699.884 95.456C698.105 96.744 696.173 97.7253 694.088 98.4Z" stroke="#F54949" stroke-width="4" mask="url(#path-1-outside-1_104_230)"/>
<path d="M126.675 198L110.575 149.148H126.123L135.139 180.888L133.207 180.52L143.327 155.864H151.975L162.647 180.612L160.531 180.796L169.547 149.148H185.095L168.443 198H157.587L147.007 171.78L148.111 171.964L137.531 198H126.675Z" stroke="#F54949" stroke-width="4" mask="url(#path-1-outside-1_104_230)"/>
<path d="M214.658 198.92C209.26 198.92 204.568 197.847 200.582 195.7C196.595 193.492 193.498 190.517 191.29 186.776C189.082 182.973 187.978 178.649 187.978 173.804C187.978 170.063 188.591 166.628 189.818 163.5C191.044 160.372 192.762 157.673 194.97 155.404C197.178 153.073 199.784 151.295 202.79 150.068C205.856 148.78 209.199 148.136 212.818 148.136C216.252 148.136 219.38 148.749 222.202 149.976C225.084 151.203 227.568 152.92 229.654 155.128C231.739 157.336 233.334 159.943 234.438 162.948C235.542 165.953 236.032 169.235 235.91 172.792L235.818 176.748H196.902L194.786 168.468H223.858L222.294 170.216V168.376C222.171 166.843 221.68 165.493 220.822 164.328C220.024 163.101 218.951 162.151 217.602 161.476C216.252 160.801 214.719 160.464 213.002 160.464C210.61 160.464 208.555 160.955 206.838 161.936C205.182 162.856 203.924 164.236 203.066 166.076C202.207 167.855 201.778 170.063 201.778 172.7C201.778 175.399 202.33 177.76 203.434 179.784C204.599 181.747 206.255 183.28 208.402 184.384C210.61 185.488 213.216 186.04 216.222 186.04C218.307 186.04 220.147 185.733 221.742 185.12C223.398 184.507 225.176 183.464 227.078 181.992L233.978 191.744C232.076 193.4 230.052 194.749 227.906 195.792C225.759 196.835 223.551 197.601 221.282 198.092C219.074 198.644 216.866 198.92 214.658 198.92Z" stroke="#F54949" stroke-width="4" mask="url(#path-1-outside-1_104_230)"/>
<path d="M296.193 198.92C291.47 198.92 287.238 197.816 283.497 195.608C279.755 193.4 276.781 190.395 274.573 186.592C272.426 182.728 271.353 178.373 271.353 173.528C271.353 168.683 272.426 164.359 274.573 160.556C276.781 156.692 279.755 153.656 283.497 151.448C287.238 149.24 291.47 148.136 296.193 148.136C300.547 148.136 304.534 148.903 308.153 150.436C311.833 151.969 314.746 154.116 316.893 156.876L308.889 166.444C308.03 165.463 307.018 164.543 305.853 163.684C304.687 162.825 303.399 162.151 301.989 161.66C300.578 161.169 299.106 160.924 297.573 160.924C295.242 160.924 293.187 161.476 291.409 162.58C289.63 163.623 288.25 165.095 287.269 166.996C286.287 168.897 285.797 171.075 285.797 173.528C285.797 175.859 286.287 177.975 287.269 179.876C288.311 181.777 289.722 183.28 291.501 184.384C293.279 185.488 295.303 186.04 297.573 186.04C299.167 186.04 300.639 185.856 301.989 185.488C303.338 185.059 304.565 184.445 305.669 183.648C306.834 182.851 307.907 181.869 308.889 180.704L316.801 190.364C314.715 193.001 311.802 195.087 308.061 196.62C304.381 198.153 300.425 198.92 296.193 198.92Z" stroke="#F54949" stroke-width="4" mask="url(#path-1-outside-1_104_230)"/>
<path d="M347.889 198.92C342.799 198.92 338.26 197.816 334.273 195.608C330.348 193.4 327.22 190.395 324.889 186.592C322.62 182.789 321.485 178.435 321.485 173.528C321.485 168.621 322.62 164.267 324.889 160.464C327.22 156.661 330.348 153.656 334.273 151.448C338.26 149.24 342.799 148.136 347.889 148.136C352.98 148.136 357.488 149.24 361.413 151.448C365.4 153.656 368.528 156.661 370.797 160.464C373.067 164.267 374.201 168.621 374.201 173.528C374.201 178.435 373.067 182.789 370.797 186.592C368.528 190.395 365.4 193.4 361.413 195.608C357.488 197.816 352.98 198.92 347.889 198.92ZM347.889 186.224C350.097 186.224 352.06 185.672 353.777 184.568C355.495 183.464 356.844 181.961 357.825 180.06C358.807 178.159 359.267 175.981 359.205 173.528C359.267 171.075 358.807 168.897 357.825 166.996C356.844 165.033 355.495 163.5 353.777 162.396C352.06 161.292 350.097 160.74 347.889 160.74C345.681 160.74 343.688 161.292 341.909 162.396C340.192 163.5 338.843 165.033 337.861 166.996C336.88 168.897 336.42 171.075 336.481 173.528C336.42 175.981 336.88 178.159 337.861 180.06C338.843 181.961 340.192 183.464 341.909 184.568C343.688 185.672 345.681 186.224 347.889 186.224Z" stroke="#F54949" stroke-width="4" mask="url(#path-1-outside-1_104_230)"/>
<path d="M402.319 199.012C398.087 199.012 394.315 197.939 391.003 195.792C387.752 193.584 385.176 190.579 383.275 186.776C381.374 182.912 380.423 178.527 380.423 173.62C380.423 168.713 381.374 164.359 383.275 160.556C385.176 156.692 387.783 153.656 391.095 151.448C394.407 149.24 398.21 148.136 402.503 148.136C404.711 148.136 406.827 148.473 408.851 149.148C410.875 149.823 412.715 150.743 414.371 151.908C416.027 153.073 417.376 154.423 418.419 155.956C419.462 157.428 420.075 158.961 420.259 160.556L416.763 161.384V129.92H431.575V198H417.867L417.039 186.868L419.983 187.328C419.799 188.861 419.186 190.333 418.143 191.744C417.162 193.155 415.874 194.412 414.279 195.516C412.684 196.559 410.844 197.387 408.759 198C406.735 198.675 404.588 199.012 402.319 199.012ZM406.091 186.776C408.36 186.776 410.323 186.224 411.979 185.12C413.635 184.016 414.892 182.483 415.751 180.52C416.671 178.557 417.131 176.257 417.131 173.62C417.131 170.921 416.671 168.591 415.751 166.628C414.892 164.665 413.635 163.132 411.979 162.028C410.323 160.924 408.36 160.372 406.091 160.372C403.822 160.372 401.859 160.924 400.203 162.028C398.608 163.132 397.351 164.665 396.431 166.628C395.511 168.591 395.051 170.921 395.051 173.62C395.051 176.257 395.511 178.557 396.431 180.52C397.351 182.483 398.608 184.016 400.203 185.12C401.859 186.224 403.822 186.776 406.091 186.776Z" stroke="#F54949" stroke-width="4" mask="url(#path-1-outside-1_104_230)"/>
<path d="M467.298 198.92C461.901 198.92 457.209 197.847 453.222 195.7C449.236 193.492 446.138 190.517 443.93 186.776C441.722 182.973 440.618 178.649 440.618 173.804C440.618 170.063 441.232 166.628 442.458 163.5C443.685 160.372 445.402 157.673 447.61 155.404C449.818 153.073 452.425 151.295 455.43 150.068C458.497 148.78 461.84 148.136 465.458 148.136C468.893 148.136 472.021 148.749 474.842 149.976C477.725 151.203 480.209 152.92 482.294 155.128C484.38 157.336 485.974 159.943 487.078 162.948C488.182 165.953 488.673 169.235 488.55 172.792L488.458 176.748H449.542L447.426 168.468H476.498L474.934 170.216V168.376C474.812 166.843 474.321 165.493 473.462 164.328C472.665 163.101 471.592 162.151 470.242 161.476C468.893 160.801 467.36 160.464 465.642 160.464C463.25 160.464 461.196 160.955 459.478 161.936C457.822 162.856 456.565 164.236 455.706 166.076C454.848 167.855 454.418 170.063 454.418 172.7C454.418 175.399 454.97 177.76 456.074 179.784C457.24 181.747 458.896 183.28 461.042 184.384C463.25 185.488 465.857 186.04 468.862 186.04C470.948 186.04 472.788 185.733 474.382 185.12C476.038 184.507 477.817 183.464 479.718 181.992L486.618 191.744C484.717 193.4 482.693 194.749 480.546 195.792C478.4 196.835 476.192 197.601 473.922 198.092C471.714 198.644 469.506 198.92 467.298 198.92Z" stroke="#F54949" stroke-width="4" mask="url(#path-1-outside-1_104_230)"/>
<path d="M528.225 198V149.148H542.945V198H528.225ZM535.585 139.488C532.825 139.488 530.648 138.844 529.053 137.556C527.52 136.207 526.753 134.305 526.753 131.852C526.753 129.644 527.551 127.835 529.145 126.424C530.74 125.013 532.886 124.308 535.585 124.308C538.345 124.308 540.492 124.983 542.025 126.332C543.558 127.62 544.325 129.46 544.325 131.852C544.325 134.121 543.528 135.961 541.933 137.372C540.4 138.783 538.284 139.488 535.585 139.488Z" stroke="#F54949" stroke-width="4" mask="url(#path-1-outside-1_104_230)"/>
<path d="M560.824 198V136.82H575.544V198H560.824ZM552.176 162.028V149.148H585.02V162.028H552.176Z" stroke="#F54949" stroke-width="4" mask="url(#path-1-outside-1_104_230)"/>
<path d="M598.676 199.012C596.162 199.012 594.199 198.307 592.788 196.896C591.439 195.485 590.764 193.461 590.764 190.824C590.764 188.371 591.5 186.377 592.972 184.844C594.444 183.311 596.346 182.544 598.676 182.544C601.191 182.544 603.154 183.28 604.564 184.752C605.975 186.163 606.68 188.187 606.68 190.824C606.68 193.216 605.944 195.179 604.472 196.712C603 198.245 601.068 199.012 598.676 199.012Z" stroke="#F54949" stroke-width="4" mask="url(#path-1-outside-1_104_230)"/>
<path d="M26.0663 74V41.892L26.7103 46.4L0.674316 9.6H18.4303L38.3023 38.12L30.2063 37.844L48.1463 9.6H65.3503L40.4183 47.412L41.7983 41.156V74H26.0663Z" fill="white"/>
<path d="M86.9128 74.92C81.8221 74.92 77.2835 73.816 73.2968 71.608C69.3715 69.4 66.2435 66.3947 63.9128 62.592C61.6435 58.7893 60.5088 54.4347 60.5088 49.528C60.5088 44.6213 61.6435 40.2667 63.9128 36.464C66.2435 32.6613 69.3715 29.656 73.2968 27.448C77.2835 25.24 81.8221 24.136 86.9128 24.136C92.0035 24.136 96.5115 25.24 100.437 27.448C104.423 29.656 107.551 32.6613 109.821 36.464C112.09 40.2667 113.225 44.6213 113.225 49.528C113.225 54.4347 112.09 58.7893 109.821 62.592C107.551 66.3947 104.423 69.4 100.437 71.608C96.5115 73.816 92.0035 74.92 86.9128 74.92ZM86.9128 62.224C89.1208 62.224 91.0835 61.672 92.8008 60.568C94.5181 59.464 95.8675 57.9613 96.8488 56.06C97.8301 54.1587 98.2901 51.9813 98.2288 49.528C98.2901 47.0747 97.8301 44.8973 96.8488 42.996C95.8675 41.0333 94.5181 39.5 92.8008 38.396C91.0835 37.292 89.1208 36.74 86.9128 36.74C84.7048 36.74 82.7115 37.292 80.9328 38.396C79.2155 39.5 77.8661 41.0333 76.8848 42.996C75.9035 44.8973 75.4435 47.0747 75.5048 49.528C75.4435 51.9813 75.9035 54.1587 76.8848 56.06C77.8661 57.9613 79.2155 59.464 80.9328 60.568C82.7115 61.672 84.7048 62.224 86.9128 62.224Z" fill="white"/>
<path d="M139.502 75.012C135.884 75.012 132.786 74.2453 130.21 72.712C127.696 71.1173 125.733 68.848 124.322 65.904C122.973 62.96 122.298 59.4333 122.298 55.324V25.148H137.11V53.3C137.11 55.2627 137.417 56.9493 138.03 58.36C138.644 59.7707 139.564 60.8747 140.79 61.672C142.017 62.408 143.489 62.776 145.206 62.776C146.494 62.776 147.66 62.5613 148.702 62.132C149.806 61.7027 150.726 61.12 151.462 60.384C152.26 59.5867 152.873 58.6973 153.302 57.716C153.732 56.6733 153.946 55.5387 153.946 54.312V25.148H168.758V74H154.866L154.222 63.972L156.982 62.868C156.246 65.1987 155.02 67.284 153.302 69.124C151.585 70.9027 149.53 72.344 147.138 73.448C144.746 74.4907 142.201 75.012 139.502 75.012Z" fill="white"/>
<path d="M212.174 74V25.148H226.894V74H212.174ZM219.534 15.488C216.774 15.488 214.597 14.844 213.002 13.556C211.469 12.2067 210.702 10.3053 210.702 7.852C210.702 5.644 211.5 3.83466 213.094 2.424C214.689 1.01333 216.836 0.307999 219.534 0.307999C222.294 0.307999 224.441 0.982666 225.974 2.332C227.508 3.62 228.274 5.46 228.274 7.852C228.274 10.1213 227.477 11.9613 225.882 13.372C224.349 14.7827 222.233 15.488 219.534 15.488Z" fill="white"/>
<path d="M240.633 74V25.148H254.617L255.077 33.98L253.145 34.072C253.881 32.4773 254.801 31.0667 255.905 29.84C257.071 28.6133 258.359 27.6013 259.769 26.804C261.241 25.9453 262.744 25.3013 264.277 24.872C265.872 24.4427 267.467 24.228 269.061 24.228C271.453 24.228 273.631 24.596 275.593 25.332C277.556 26.068 279.273 27.264 280.745 28.92C282.217 30.5147 283.383 32.692 284.241 35.452L281.941 35.268L282.677 33.796C283.475 32.324 284.487 31.0053 285.713 29.84C287.001 28.6133 288.412 27.6013 289.945 26.804C291.479 25.9453 293.073 25.3013 294.729 24.872C296.385 24.4427 297.98 24.228 299.513 24.228C303.377 24.228 306.597 24.9947 309.173 26.528C311.749 28 313.681 30.2387 314.969 33.244C316.319 36.2493 316.993 39.8987 316.993 44.192V74H302.181V45.388C302.181 43.4253 301.905 41.8 301.353 40.512C300.801 39.224 299.973 38.2733 298.869 37.66C297.827 36.9853 296.508 36.648 294.913 36.648C293.625 36.648 292.429 36.8627 291.325 37.292C290.283 37.7213 289.363 38.304 288.565 39.04C287.829 39.776 287.247 40.6347 286.817 41.616C286.388 42.5973 286.173 43.7013 286.173 44.928V74H271.361V45.296C271.361 43.456 271.085 41.892 270.533 40.604C269.981 39.316 269.153 38.3347 268.049 37.66C266.945 36.9853 265.657 36.648 264.185 36.648C262.897 36.648 261.701 36.8627 260.597 37.292C259.555 37.7213 258.635 38.304 257.837 39.04C257.101 39.776 256.519 40.6347 256.089 41.616C255.66 42.5973 255.445 43.6707 255.445 44.836V74H240.633Z" fill="white"/>
<path d="M347.253 74.828C343.144 74.828 339.464 73.7547 336.213 71.608C333.024 69.4 330.479 66.3947 328.577 62.592C326.676 58.728 325.725 54.3733 325.725 49.528C325.725 44.56 326.676 40.1747 328.577 36.372C330.479 32.5693 333.085 29.5947 336.397 27.448C339.709 25.24 343.481 24.136 347.713 24.136C350.044 24.136 352.16 24.4733 354.061 25.148C356.024 25.8227 357.741 26.7733 359.213 28C360.685 29.1653 361.943 30.5453 362.985 32.14C364.028 33.6733 364.795 35.3293 365.285 37.108L362.249 36.74V25.148H376.877V74H361.973V62.224L365.285 62.132C364.795 63.8493 363.997 65.4747 362.893 67.008C361.789 68.5413 360.44 69.8907 358.845 71.056C357.251 72.2213 355.472 73.1413 353.509 73.816C351.547 74.4907 349.461 74.828 347.253 74.828ZM351.301 62.408C353.571 62.408 355.533 61.8867 357.189 60.844C358.845 59.8013 360.133 58.3293 361.053 56.428C361.973 54.4653 362.433 52.1653 362.433 49.528C362.433 46.8907 361.973 44.6213 361.053 42.72C360.133 40.7573 358.845 39.2547 357.189 38.212C355.533 37.108 353.571 36.556 351.301 36.556C349.093 36.556 347.161 37.108 345.505 38.212C343.911 39.2547 342.653 40.7573 341.733 42.72C340.813 44.6213 340.353 46.8907 340.353 49.528C340.353 52.1653 340.813 54.4653 341.733 56.428C342.653 58.3293 343.911 59.8013 345.505 60.844C347.161 61.8867 349.093 62.408 351.301 62.408Z" fill="white"/>
<path d="M412.222 95.16C408.235 95.16 404.249 94.5773 400.262 93.412C396.337 92.2467 393.147 90.744 390.694 88.904L395.846 78.6C397.134 79.4587 398.545 80.1947 400.078 80.808C401.673 81.4827 403.329 82.004 405.046 82.372C406.763 82.74 408.511 82.924 410.29 82.924C413.418 82.924 415.963 82.464 417.926 81.544C419.889 80.624 421.361 79.2133 422.342 77.312C423.323 75.472 423.814 73.1413 423.814 70.32V62.132L426.666 62.592C426.237 64.616 425.163 66.456 423.446 68.112C421.79 69.768 419.735 71.1173 417.282 72.16C414.829 73.1413 412.222 73.632 409.462 73.632C405.046 73.632 401.09 72.62 397.594 70.596C394.159 68.5107 391.43 65.6587 389.406 62.04C387.443 58.36 386.462 54.128 386.462 49.344C386.462 44.4373 387.443 40.1133 389.406 36.372C391.369 32.5693 394.067 29.5947 397.502 27.448C400.937 25.24 404.801 24.136 409.094 24.136C410.934 24.136 412.682 24.3507 414.338 24.78C416.055 25.2093 417.619 25.792 419.03 26.528C420.502 27.2027 421.79 28.0307 422.894 29.012C424.059 29.932 424.979 30.944 425.654 32.048C426.39 33.152 426.881 34.2867 427.126 35.452L424.09 36.188L424.642 25.148H438.626V70.044C438.626 74.0307 438.013 77.5573 436.786 80.624C435.621 83.752 433.873 86.3893 431.542 88.536C429.273 90.744 426.513 92.4 423.262 93.504C420.011 94.608 416.331 95.16 412.222 95.16ZM412.59 62.224C414.982 62.224 417.037 61.7027 418.754 60.66C420.533 59.556 421.882 58.0533 422.802 56.152C423.783 54.2507 424.274 52.012 424.274 49.436C424.274 46.86 423.783 44.6213 422.802 42.72C421.882 40.7573 420.533 39.2547 418.754 38.212C417.037 37.108 414.982 36.556 412.59 36.556C410.259 36.556 408.235 37.108 406.518 38.212C404.801 39.2547 403.451 40.7573 402.47 42.72C401.55 44.6213 401.09 46.86 401.09 49.436C401.09 52.012 401.55 54.2507 402.47 56.152C403.451 58.0533 404.801 59.556 406.518 60.66C408.235 61.7027 410.259 62.224 412.59 62.224Z" fill="white"/>
<path d="M452.237 74V25.148H466.957V74H452.237ZM459.597 15.488C456.837 15.488 454.66 14.844 453.065 13.556C451.532 12.2067 450.765 10.3053 450.765 7.852C450.765 5.644 451.562 3.83466 453.157 2.424C454.752 1.01333 456.898 0.307999 459.597 0.307999C462.357 0.307999 464.504 0.982666 466.037 2.332C467.57 3.62 468.337 5.46 468.337 7.852C468.337 10.1213 467.54 11.9613 465.945 13.372C464.412 14.7827 462.296 15.488 459.597 15.488Z" fill="white"/>
<path d="M480.788 74V25.148H494.772L495.232 35.084L492.288 36.188C492.962 33.98 494.158 31.9867 495.876 30.208C497.654 28.368 499.771 26.896 502.224 25.792C504.677 24.688 507.253 24.136 509.952 24.136C513.632 24.136 516.729 24.9027 519.244 26.436C521.758 27.908 523.66 30.1467 524.948 33.152C526.236 36.096 526.88 39.7147 526.88 44.008V74H512.068V45.204C512.068 43.2413 511.792 41.616 511.24 40.328C510.688 39.04 509.829 38.0893 508.664 37.476C507.56 36.8013 506.18 36.4947 504.524 36.556C503.236 36.556 502.04 36.7707 500.936 37.2C499.832 37.568 498.881 38.1507 498.084 38.948C497.286 39.684 496.642 40.5427 496.152 41.524C495.723 42.5053 495.508 43.5787 495.508 44.744V74H488.24C486.522 74 485.05 74 483.824 74C482.597 74 481.585 74 480.788 74Z" fill="white"/>
<path d="M562.462 74.92C557.065 74.92 552.373 73.8467 548.386 71.7C544.4 69.492 541.302 66.5173 539.094 62.776C536.886 58.9733 535.782 54.6493 535.782 49.804C535.782 46.0627 536.396 42.628 537.622 39.5C538.849 36.372 540.566 33.6733 542.774 31.404C544.982 29.0733 547.589 27.2947 550.594 26.068C553.661 24.78 557.004 24.136 560.622 24.136C564.057 24.136 567.185 24.7493 570.006 25.976C572.889 27.2027 575.373 28.92 577.458 31.128C579.544 33.336 581.138 35.9427 582.242 38.948C583.346 41.9533 583.837 45.2347 583.714 48.792L583.622 52.748H544.706L542.59 44.468H571.662L570.098 46.216V44.376C569.976 42.8427 569.485 41.4933 568.626 40.328C567.829 39.1013 566.756 38.1507 565.406 37.476C564.057 36.8013 562.524 36.464 560.806 36.464C558.414 36.464 556.36 36.9547 554.642 37.936C552.986 38.856 551.729 40.236 550.87 42.076C550.012 43.8547 549.582 46.0627 549.582 48.7C549.582 51.3987 550.134 53.76 551.238 55.784C552.404 57.7467 554.06 59.28 556.206 60.384C558.414 61.488 561.021 62.04 564.026 62.04C566.112 62.04 567.952 61.7333 569.546 61.12C571.202 60.5067 572.981 59.464 574.882 57.992L581.782 67.744C579.881 69.4 577.857 70.7493 575.71 71.792C573.564 72.8347 571.356 73.6013 569.086 74.092C566.878 74.644 564.67 74.92 562.462 74.92Z" fill="white"/>
<path d="M623.389 74V25.148H638.109V74H623.389ZM630.749 15.488C627.989 15.488 625.812 14.844 624.217 13.556C622.684 12.2067 621.917 10.3053 621.917 7.852C621.917 5.644 622.715 3.83466 624.309 2.424C625.904 1.01333 628.051 0.307999 630.749 0.307999C633.509 0.307999 635.656 0.982666 637.189 2.332C638.723 3.62 639.489 5.46 639.489 7.852C639.489 10.1213 638.692 11.9613 637.097 13.372C635.564 14.7827 633.448 15.488 630.749 15.488Z" fill="white"/>
<path d="M655.988 74V12.82H670.708V74H655.988ZM647.34 38.028V25.148H680.184V38.028H647.34Z" fill="white"/>
<path d="M688.088 92.4L683.856 87.156C686.309 86.052 688.272 84.6413 689.744 82.924C691.216 81.268 691.952 79.8267 691.952 78.6C691.952 78.048 691.798 77.4347 691.492 76.76C691.246 76.1467 690.572 75.4413 689.468 74.644C688.057 73.6013 687.106 72.5893 686.616 71.608C686.125 70.5653 685.88 69.4307 685.88 68.204C685.88 66.3027 686.554 64.8 687.904 63.696C689.314 62.592 691.124 62.04 693.332 62.04C695.11 62.04 696.705 62.5307 698.116 63.512C699.588 64.4933 700.722 65.8427 701.52 67.56C702.378 69.2773 702.807 71.2707 702.807 73.54C702.807 75.6253 702.44 77.6187 701.703 79.52C700.967 81.4827 699.925 83.292 698.576 84.948C697.287 86.6653 695.724 88.168 693.884 89.456C692.105 90.744 690.173 91.7253 688.088 92.4Z" fill="white"/>
<path d="M120.675 192L104.575 143.148H120.123L129.139 174.888L127.207 174.52L137.327 149.864H145.975L156.647 174.612L154.531 174.796L163.547 143.148H179.095L162.443 192H151.587L141.007 165.78L142.111 165.964L131.531 192H120.675Z" fill="white"/>
<path d="M208.658 192.92C203.26 192.92 198.568 191.847 194.582 189.7C190.595 187.492 187.498 184.517 185.29 180.776C183.082 176.973 181.978 172.649 181.978 167.804C181.978 164.063 182.591 160.628 183.818 157.5C185.044 154.372 186.762 151.673 188.97 149.404C191.178 147.073 193.784 145.295 196.79 144.068C199.856 142.78 203.199 142.136 206.818 142.136C210.252 142.136 213.38 142.749 216.202 143.976C219.084 145.203 221.568 146.92 223.654 149.128C225.739 151.336 227.334 153.943 228.438 156.948C229.542 159.953 230.032 163.235 229.91 166.792L229.818 170.748H190.902L188.786 162.468H217.858L216.294 164.216V162.376C216.171 160.843 215.68 159.493 214.822 158.328C214.024 157.101 212.951 156.151 211.602 155.476C210.252 154.801 208.719 154.464 207.002 154.464C204.61 154.464 202.555 154.955 200.838 155.936C199.182 156.856 197.924 158.236 197.066 160.076C196.207 161.855 195.778 164.063 195.778 166.7C195.778 169.399 196.33 171.76 197.434 173.784C198.599 175.747 200.255 177.28 202.402 178.384C204.61 179.488 207.216 180.04 210.222 180.04C212.307 180.04 214.147 179.733 215.742 179.12C217.398 178.507 219.176 177.464 221.078 175.992L227.978 185.744C226.076 187.4 224.052 188.749 221.906 189.792C219.759 190.835 217.551 191.601 215.282 192.092C213.074 192.644 210.866 192.92 208.658 192.92Z" fill="white"/>
<path d="M290.193 192.92C285.47 192.92 281.238 191.816 277.497 189.608C273.755 187.4 270.781 184.395 268.573 180.592C266.426 176.728 265.353 172.373 265.353 167.528C265.353 162.683 266.426 158.359 268.573 154.556C270.781 150.692 273.755 147.656 277.497 145.448C281.238 143.24 285.47 142.136 290.193 142.136C294.547 142.136 298.534 142.903 302.153 144.436C305.833 145.969 308.746 148.116 310.893 150.876L302.889 160.444C302.03 159.463 301.018 158.543 299.853 157.684C298.687 156.825 297.399 156.151 295.989 155.66C294.578 155.169 293.106 154.924 291.573 154.924C289.242 154.924 287.187 155.476 285.409 156.58C283.63 157.623 282.25 159.095 281.269 160.996C280.287 162.897 279.797 165.075 279.797 167.528C279.797 169.859 280.287 171.975 281.269 173.876C282.311 175.777 283.722 177.28 285.501 178.384C287.279 179.488 289.303 180.04 291.573 180.04C293.167 180.04 294.639 179.856 295.989 179.488C297.338 179.059 298.565 178.445 299.669 177.648C300.834 176.851 301.907 175.869 302.889 174.704L310.801 184.364C308.715 187.001 305.802 189.087 302.061 190.62C298.381 192.153 294.425 192.92 290.193 192.92Z" fill="white"/>
<path d="M341.889 192.92C336.799 192.92 332.26 191.816 328.273 189.608C324.348 187.4 321.22 184.395 318.889 180.592C316.62 176.789 315.485 172.435 315.485 167.528C315.485 162.621 316.62 158.267 318.889 154.464C321.22 150.661 324.348 147.656 328.273 145.448C332.26 143.24 336.799 142.136 341.889 142.136C346.98 142.136 351.488 143.24 355.413 145.448C359.4 147.656 362.528 150.661 364.797 154.464C367.067 158.267 368.201 162.621 368.201 167.528C368.201 172.435 367.067 176.789 364.797 180.592C362.528 184.395 359.4 187.4 355.413 189.608C351.488 191.816 346.98 192.92 341.889 192.92ZM341.889 180.224C344.097 180.224 346.06 179.672 347.777 178.568C349.495 177.464 350.844 175.961 351.825 174.06C352.807 172.159 353.267 169.981 353.205 167.528C353.267 165.075 352.807 162.897 351.825 160.996C350.844 159.033 349.495 157.5 347.777 156.396C346.06 155.292 344.097 154.74 341.889 154.74C339.681 154.74 337.688 155.292 335.909 156.396C334.192 157.5 332.843 159.033 331.861 160.996C330.88 162.897 330.42 165.075 330.481 167.528C330.42 169.981 330.88 172.159 331.861 174.06C332.843 175.961 334.192 177.464 335.909 178.568C337.688 179.672 339.681 180.224 341.889 180.224Z" fill="white"/>
<path d="M396.319 193.012C392.087 193.012 388.315 191.939 385.003 189.792C381.752 187.584 379.176 184.579 377.275 180.776C375.374 176.912 374.423 172.527 374.423 167.62C374.423 162.713 375.374 158.359 377.275 154.556C379.176 150.692 381.783 147.656 385.095 145.448C388.407 143.24 392.21 142.136 396.503 142.136C398.711 142.136 400.827 142.473 402.851 143.148C404.875 143.823 406.715 144.743 408.371 145.908C410.027 147.073 411.376 148.423 412.419 149.956C413.462 151.428 414.075 152.961 414.259 154.556L410.763 155.384V123.92H425.575V192H411.867L411.039 180.868L413.983 181.328C413.799 182.861 413.186 184.333 412.143 185.744C411.162 187.155 409.874 188.412 408.279 189.516C406.684 190.559 404.844 191.387 402.759 192C400.735 192.675 398.588 193.012 396.319 193.012ZM400.091 180.776C402.36 180.776 404.323 180.224 405.979 179.12C407.635 178.016 408.892 176.483 409.751 174.52C410.671 172.557 411.131 170.257 411.131 167.62C411.131 164.921 410.671 162.591 409.751 160.628C408.892 158.665 407.635 157.132 405.979 156.028C404.323 154.924 402.36 154.372 400.091 154.372C397.822 154.372 395.859 154.924 394.203 156.028C392.608 157.132 391.351 158.665 390.431 160.628C389.511 162.591 389.051 164.921 389.051 167.62C389.051 170.257 389.511 172.557 390.431 174.52C391.351 176.483 392.608 178.016 394.203 179.12C395.859 180.224 397.822 180.776 400.091 180.776Z" fill="white"/>
<path d="M461.298 192.92C455.901 192.92 451.209 191.847 447.222 189.7C443.236 187.492 440.138 184.517 437.93 180.776C435.722 176.973 434.618 172.649 434.618 167.804C434.618 164.063 435.232 160.628 436.458 157.5C437.685 154.372 439.402 151.673 441.61 149.404C443.818 147.073 446.425 145.295 449.43 144.068C452.497 142.78 455.84 142.136 459.458 142.136C462.893 142.136 466.021 142.749 468.842 143.976C471.725 145.203 474.209 146.92 476.294 149.128C478.38 151.336 479.974 153.943 481.078 156.948C482.182 159.953 482.673 163.235 482.55 166.792L482.458 170.748H443.542L441.426 162.468H470.498L468.934 164.216V162.376C468.812 160.843 468.321 159.493 467.462 158.328C466.665 157.101 465.592 156.151 464.242 155.476C462.893 154.801 461.36 154.464 459.642 154.464C457.25 154.464 455.196 154.955 453.478 155.936C451.822 156.856 450.565 158.236 449.706 160.076C448.848 161.855 448.418 164.063 448.418 166.7C448.418 169.399 448.97 171.76 450.074 173.784C451.24 175.747 452.896 177.28 455.042 178.384C457.25 179.488 459.857 180.04 462.862 180.04C464.948 180.04 466.788 179.733 468.382 179.12C470.038 178.507 471.817 177.464 473.718 175.992L480.618 185.744C478.717 187.4 476.693 188.749 474.546 189.792C472.4 190.835 470.192 191.601 467.922 192.092C465.714 192.644 463.506 192.92 461.298 192.92Z" fill="white"/>
<path d="M522.225 192V143.148H536.945V192H522.225ZM529.585 133.488C526.825 133.488 524.648 132.844 523.053 131.556C521.52 130.207 520.753 128.305 520.753 125.852C520.753 123.644 521.551 121.835 523.145 120.424C524.74 119.013 526.886 118.308 529.585 118.308C532.345 118.308 534.492 118.983 536.025 120.332C537.558 121.62 538.325 123.46 538.325 125.852C538.325 128.121 537.528 129.961 535.933 131.372C534.4 132.783 532.284 133.488 529.585 133.488Z" fill="white"/>
<path d="M554.824 192V130.82H569.544V192H554.824ZM546.176 156.028V143.148H579.02V156.028H546.176Z" fill="white"/>
<path d="M592.676 193.012C590.162 193.012 588.199 192.307 586.788 190.896C585.439 189.485 584.764 187.461 584.764 184.824C584.764 182.371 585.5 180.377 586.972 178.844C588.444 177.311 590.346 176.544 592.676 176.544C595.191 176.544 597.154 177.28 598.564 178.752C599.975 180.163 600.68 182.187 600.68 184.824C600.68 187.216 599.944 189.179 598.472 190.712C597 192.245 595.068 193.012 592.676 193.012Z" fill="white"/>
</svg>
